<?xml version="1.0" standalone="no"?>
<!DOCTYPE svg PUBLIC "-//W3C//DTD SVG 20010904//EN"
 "http://www.w3.org/TR/2001/REC-SVG-20010904/DTD/svg10.dtd">
<svg version="1.0" xmlns="http://www.w3.org/2000/svg"
 width="128.000000pt" height="128.000000pt" viewBox="0 0 128.000000 128.000000"
 preserveAspectRatio="xMidYMid meet">

<g transform="translate(0.000000,128.000000) scale(0.100000,-0.100000)"
fill="#000000" stroke="none">
<path d="M605 1066 c-8 -19 -15 -40 -15 -45 0 -6 -21 -11 -46 -13 -70 -4 -80
-30 -32 -72 36 -31 37 -34 26 -68 -21 -69 12 -95 67 -54 l35 27 35 -27 c55
-41 88 -15 67 54 -11 34 -10 37 26 68 31 27 35 35 26 51 -7 12 -25 19 -55 21
-43 3 -46 5 -59 45 -20 58 -54 64 -75 13z m52 -66 c10 -26 16 -30 50 -30 l38
-1 -29 -23 c-25 -21 -28 -28 -22 -61 l7 -37 -30 18 c-30 18 -32 18 -62 0 l-30
-18 7 37 c6 33 3 40 -22 61 l-29 23 38 1 c34 0 40 4 50 30 6 17 14 30 17 30 3
0 11 -13 17 -30z"/>
<path d="M300 924 c-6 -14 -10 -30 -10 -35 0 -5 -18 -9 -39 -9 -32 0 -41 -4
-47 -22 -5 -17 0 -27 20 -43 24 -19 26 -26 20 -63 -5 -33 -3 -43 10 -48 17 -6
29 -3 58 18 14 10 23 9 48 -6 47 -27 64 -15 57 38 -6 39 -4 46 19 61 39 25 29
59 -19 63 -32 3 -39 8 -52 38 -17 42 -51 47 -65 8z m43 -64 c4 -14 14 -20 33
-20 l28 0 -22 -16 c-17 -12 -21 -21 -15 -42 6 -24 5 -26 -11 -13 -13 11 -22
11 -41 3 -24 -11 -25 -10 -19 12 4 18 0 28 -17 40 l-23 16 28 0 c19 0 29 6 33
20 3 11 9 20 13 20 4 0 10 -9 13 -20z"/>
<path d="M915 916 c-13 -30 -20 -35 -52 -38 -48 -4 -58 -38 -19 -63 23 -15 25
-22 19 -61 -7 -53 10 -65 57 -38 25 15 34 16 48 6 29 -21 41 -24 58 -18 13 5
15 15 10 48 -6 37 -4 44 20 63 20 16 25 26 20 43 -6 18 -15 22 -45 22 -34 0
-39 3 -47 33 -14 48 -50 50 -69 3z m48 -56 c4 -14 14 -20 33 -20 l28 0 -23
-16 c-17 -12 -21 -22 -17 -40 6 -22 5 -23 -19 -12 -19 8 -28 8 -41 -3 -16 -13
-17 -11 -11 13 6 21 2 30 -15 42 l-22 16 28 0 c19 0 29 6 33 20 3 11 9 20 13
20 4 0 10 -9 13 -20z"/>
<path d="M607 693 c-4 -3 -7 -13 -7 -22 0 -35 -22 -92 -46 -120 -24 -29 -29
-30 -117 -33 l-92 -3 0 -155 0 -155 90 -5 c58 -4 101 -12 120 -23 25 -14 57
-17 182 -17 187 0 181 -5 179 148 -1 73 2 107 11 114 19 16 16 55 -7 78 -17
17 -33 20 -100 20 l-80 0 0 55 c0 65 -14 99 -47 114 -27 12 -76 15 -86 4z m81
-46 c6 -7 12 -46 14 -87 l3 -75 95 -5 c75 -4 95 -8 95 -20 0 -8 -9 -16 -20
-18 -36 -7 -42 -22 -15 -43 l25 -19 -25 -20 -25 -20 25 -20 25 -20 -25 -20
-25 -20 25 -19 c45 -35 17 -43 -142 -39 -104 2 -150 7 -161 17 -14 11 -17 35
-17 141 0 122 1 128 23 143 25 16 63 84 72 130 6 29 34 37 53 14z m-188 -287
l0 -120 -60 0 -60 0 0 120 0 120 60 0 60 0 0 -120z"/>
<path d="M135 656 c-13 -30 -20 -35 -52 -38 -48 -4 -58 -38 -19 -63 23 -15 25
-22 19 -61 -7 -53 10 -65 57 -38 25 15 34 16 48 6 29 -21 41 -24 58 -18 13 5
15 15 10 48 -6 37 -4 44 20 63 20 16 25 26 20 43 -6 18 -15 22 -45 22 -34 0
-39 3 -47 33 -14 48 -50 50 -69 3z m48 -56 c4 -14 14 -20 33 -20 l28 0 -23
-16 c-17 -12 -21 -22 -17 -40 6 -22 5 -23 -19 -12 -19 8 -28 8 -41 -3 -16 -13
-17 -11 -11 13 6 21 2 30 -15 42 l-22 16 28 0 c19 0 29 6 33 20 3 11 9 20 13
20 4 0 10 -9 13 -20z"/>
<path d="M1075 656 c-13 -30 -20 -35 -52 -38 -48 -4 -58 -38 -19 -63 23 -15
25 -22 19 -61 -7 -53 10 -65 57 -38 25 15 34 16 48 6 29 -21 41 -24 58 -18 13
5 15 15 10 48 -6 37 -4 44 20 63 20 16 25 26 20 43 -6 18 -15 22 -45 22 -34 0
-39 3 -47 33 -14 48 -50 50 -69 3z m48 -56 c4 -14 14 -20 33 -20 l28 0 -23
-16 c-17 -12 -21 -22 -17 -40 6 -22 5 -23 -19 -12 -19 8 -28 8 -41 -3 -16 -13
-17 -11 -11 13 6 21 2 30 -15 42 l-22 16 28 0 c19 0 29 6 33 20 3 11 9 20 13
20 4 0 10 -9 13 -20z"/>
</g>
</svg>
