<?xml version="1.0" encoding="UTF-8"?>
<svg version="1.1" xmlns="http://www.w3.org/2000/svg" width="250" height="250">
<path d="M0 0 C82.5 0 165 0 250 0 C250 82.5 250 165 250 250 C167.5 250 85 250 0 250 C0 167.5 0 85 0 0 Z " fill="#F9F9F9" transform="translate(0,0)"/>
<path d="M0 0 C26.73 0 53.46 0 81 0 C81.99 1.98 82.98 3.96 84 6 C82 7 80 8 78 9 C78.99 9.99 78.99 9.99 80 11 C79.55011719 11.37769531 79.10023437 11.75539063 78.63671875 12.14453125 C75.35614018 14.95175981 72.16911127 17.78149829 69.1953125 20.9140625 C68.71747314 21.41317139 68.23963379 21.91228027 67.74731445 22.42651367 C66.35931316 23.88820161 64.98601461 25.36380773 63.61328125 26.83984375 C61 29 61 29 56 29 C51.71 24.71 47.42 20.42 43 16 C43 87.94 43 159.88 43 234 C47.29 229.71 51.58 225.42 56 221 C61 221 61 221 63.2199707 222.65234375 C63.94788818 223.40644531 64.67580566 224.16054687 65.42578125 224.9375 C66.22177734 225.74960938 67.01777344 226.56171875 67.83789062 227.3984375 C68.65451172 228.25695312 69.47113281 229.11546875 70.3125 230 C71.14845703 230.85851562 71.98441406 231.71703125 72.84570312 232.6015625 C74.90879656 234.72360146 76.95934566 236.85641027 79 239 C82.54661662 236.07744076 85.97097242 233.12826847 89.09765625 229.75390625 C89.58943359 229.22732422 90.08121094 228.70074219 90.58789062 228.15820312 C91.58644902 227.0776439 92.57318044 225.98605519 93.54882812 224.88476562 C95.03515625 223.31640625 95.03515625 223.31640625 98 221 C101.47403627 220.92708813 103.1495171 221.27681281 105.80078125 223.53125 C106.54908203 224.50578125 106.54908203 224.50578125 107.3125 225.5 C110.0036145 228.80845257 112.76918319 231.946716 115.75 235 C116.48734375 235.763125 117.2246875 236.52625 117.984375 237.3125 C119.9452515 239.32096833 119.9452515 239.32096833 123 239 C123.26643311 238.4112207 123.53286621 237.82244141 123.80737305 237.21582031 C125.81679719 233.48244599 128.84765252 230.7422153 131.8125 227.75 C132.42931641 227.1003125 133.04613281 226.450625 133.68164062 225.78125 C134.28814453 225.16765625 134.89464844 224.5540625 135.51953125 223.921875 C136.34094604 223.08027832 136.34094604 223.08027832 137.17895508 222.22167969 C139.67822265 220.54500253 141.04382075 220.50476524 144 221 C146.2199707 222.65234375 146.2199707 222.65234375 148.42578125 224.9375 C149.22177734 225.74960938 150.01777344 226.56171875 150.83789062 227.3984375 C151.65451172 228.25695312 152.47113281 229.11546875 153.3125 230 C154.14845703 230.85851562 154.98441406 231.71703125 155.84570312 232.6015625 C157.90879656 234.72360146 159.95934566 236.85641027 162 239 C165.53670608 236.07483567 168.96972311 233.11981403 172.1328125 229.7890625 C172.62910156 229.26699219 173.12539062 228.74492187 173.63671875 228.20703125 C174.64429614 227.13598442 175.64411529 226.05759491 176.63671875 224.97265625 C178.78584198 222.73375242 180.46396844 221.15556752 183.4765625 220.28125 C187.38095867 221.39333807 189.52902063 223.96061768 192.25 226.875 C192.79140625 227.43058594 193.3328125 227.98617187 193.890625 228.55859375 C197.81513799 232.63027597 197.81513799 232.63027597 199 235 C199 162.73 199 90.46 199 16 C194.71 20.29 190.42 24.58 186 29 C181 29 181 29 178.93530273 27.42358398 C178.27473877 26.70501221 177.6141748 25.98644043 176.93359375 25.24609375 C176.20076172 24.47458984 175.46792969 23.70308594 174.71289062 22.90820312 C173.96201172 22.09287109 173.21113281 21.27753906 172.4375 20.4375 C170.94813686 18.82094957 169.44732644 17.21484755 167.93359375 15.62109375 C167.27415771 14.9036499 166.61472168 14.18620605 165.93530273 13.44702148 C164.13434516 11.78962415 164.13434516 11.78962415 161.99072266 12.04882812 C159.53687072 13.22128424 158.08603147 14.62313821 156.21484375 16.59765625 C155.51939453 17.31630859 154.82394531 18.03496094 154.10742188 18.77539062 C153.39134766 19.53013672 152.67527344 20.28488281 151.9375 21.0625 C150.51620195 22.56014351 149.08812017 24.0513873 147.65234375 25.53515625 C147.02320068 26.199104 146.39405762 26.86305176 145.74584961 27.54711914 C144 29 144 29 141 29 C141 28.34 141 27.68 141 27 C142.33172686 26.15890935 143.66432059 25.31917463 145 24.484375 C149.44359146 21.18639696 153.16477218 16.97165885 157 13 C156.34 13 155.68 13 155 13 C155 12.34 155 11.68 155 11 C154.34 11 153.68 11 153 11 C154.5830577 6.7257442 157.50568404 4.73468206 161 2 C165.01152836 4.17768682 167.8223794 6.74487646 171 10 C172.09706326 10.88388983 173.20127821 11.75897739 174.3125 12.625 C175.199375 13.40875 176.08625 14.1925 177 15 C177 15.99 177 16.98 177 18 C177.66 18 178.32 18 179 18 C179 17.34 179 16.68 179 16 C180.65 16.66 182.3 17.32 184 18 C184.62044189 17.36384766 184.62044189 17.36384766 185.25341797 16.71484375 C187.12207921 14.80472667 188.99839503 12.90231189 190.875 11 C191.85146484 9.99839844 191.85146484 9.99839844 192.84765625 8.9765625 C193.47285156 8.34492188 194.09804687 7.71328125 194.7421875 7.0625 C195.3182373 6.47597656 195.89428711 5.88945313 196.48779297 5.28515625 C198 4 198 4 200 4 C200.66 2.68 201.32 1.36 202 0 C217.84 0 233.68 0 250 0 C250 82.5 250 165 250 250 C167.5 250 85 250 0 250 C0 167.5 0 85 0 0 Z " fill="#232021" transform="translate(0,0)"/>
<path d="M0 0 C0 53.79 0 107.58 0 163 C-5 158 -5 158 -7.28125 155.54296875 C-8.0134375 154.76566406 -8.745625 153.98835937 -9.5 153.1875 C-10.2321875 152.39730469 -10.964375 151.60710937 -11.71875 150.79296875 C-13.83542246 148.82593249 -13.83542246 148.82593249 -16.3659668 148.6418457 C-19.86840293 149.11807833 -20.988838 150.41289692 -23.42578125 152.9375 C-24.61977539 154.15566406 -24.61977539 154.15566406 -25.83789062 155.3984375 C-27.06282227 156.68621094 -27.06282227 156.68621094 -28.3125 158 C-29.14845703 158.85851562 -29.98441406 159.71703125 -30.84570312 160.6015625 C-32.90879656 162.72360146 -34.95934566 164.85641027 -37 167 C-40.53670608 164.07483567 -43.96972311 161.11981403 -47.1328125 157.7890625 C-47.87724609 157.00595703 -47.87724609 157.00595703 -48.63671875 156.20703125 C-49.64429614 155.13598442 -50.64411529 154.05759491 -51.63671875 152.97265625 C-54.5386167 149.90125423 -54.5386167 149.90125423 -58.45019531 148.65063477 C-61.58100043 149.07960663 -62.50023671 149.91479556 -64.6640625 152.17578125 C-65.31117188 152.83900391 -65.95828125 153.50222656 -66.625 154.18554688 C-67.285 154.88744141 -67.945 155.58933594 -68.625 156.3125 C-69.29273438 157.00279297 -69.96046875 157.69308594 -70.6484375 158.40429688 C-71.89204411 159.69142972 -73.13043963 160.98363292 -74.36181641 162.2824707 C-75.88502047 163.87945141 -77.43286795 165.44623938 -79 167 C-83.63341004 163.21762445 -87.602704 159.33879611 -91.421875 154.734375 C-93.0792468 152.77231826 -93.0792468 152.77231826 -96 151 C-96 150.34 -96 149.68 -96 149 C-99.53095422 148.68021547 -101.38843645 148.56695311 -104.33349609 150.65234375 C-105.05617676 151.40644531 -105.77885742 152.16054687 -106.5234375 152.9375 C-107.71259766 154.15566406 -107.71259766 154.15566406 -108.92578125 155.3984375 C-110.13814453 156.68621094 -110.13814453 156.68621094 -111.375 158 C-112.62216797 159.28777344 -112.62216797 159.28777344 -113.89453125 160.6015625 C-115.94382838 162.72152505 -117.97784025 164.85418984 -120 167 C-123.53670608 164.07483567 -126.96972311 161.11981403 -130.1328125 157.7890625 C-130.87724609 157.00595703 -130.87724609 157.00595703 -131.63671875 156.20703125 C-132.64429614 155.13598442 -133.64411529 154.05759491 -134.63671875 152.97265625 C-136.95359724 150.55898911 -138.39249802 149.09823436 -141.75390625 148.5546875 C-144.40489189 149.08027422 -145.3436663 149.90778901 -147 152 C-148.32 151.34 -149.64 150.68 -151 150 C-149.49289249 146.98578498 -147.3633403 145.27496023 -144.6875 143.25 C-142.52522861 141.43972628 -140.95576974 139.83537113 -139.1875 137.6875 C-137.05133193 135.11259881 -134.83479176 132.90430808 -132.28271484 130.74316406 C-128.10716998 127.13561743 -124.18366376 123.32856028 -120.2890625 119.421875 C-119.59485199 118.72862122 -118.90064148 118.03536743 -118.18539429 117.32110596 C-116.73385928 115.87024588 -115.28356388 114.41814463 -113.83447266 112.96484375 C-111.61344106 110.73841296 -109.38706519 108.51742554 -107.16015625 106.296875 C-105.74447057 104.88052921 -104.32909474 103.46387363 -102.9140625 102.046875 C-101.9172496 101.05309845 -101.9172496 101.05309845 -100.90029907 100.03924561 C-100.2856076 99.42140198 -99.67091614 98.80355835 -99.03759766 98.16699219 C-98.49769196 97.62629089 -97.95778625 97.0855896 -97.40151978 96.52850342 C-95.78559977 94.84466413 -95.78559977 94.84466413 -94 92 C-93.34 92 -92.68 92 -92 92 C-92 91.34 -92 90.68 -92 90 C-90.63671875 88.66015625 -90.63671875 88.66015625 -88.6875 87.0625 C-85.01788566 83.93214798 -81.5048539 80.68827502 -78.0625 77.3125 C-77.12535156 76.40113281 -76.18820313 75.48976563 -75.22265625 74.55078125 C-73.02116546 72.02429006 -72.68833283 71.09749775 -72 68 C-70.22265625 65.859375 -70.22265625 65.859375 -68.0625 63.75 C-67.35222656 63.04359375 -66.64195312 62.3371875 -65.91015625 61.609375 C-64 60 -64 60 -62 60 C-61.75765625 60.88042969 -61.5153125 61.76085937 -61.265625 62.66796875 C-60.76289063 64.41013672 -60.76289063 64.41013672 -60.25 66.1875 C-59.92515625 67.33605469 -59.6003125 68.48460937 -59.265625 69.66796875 C-57.03260381 75.54687948 -53.88209132 78.55551198 -48.3515625 81.17578125 C-45.67283205 82.11467182 -43.12274233 82.49247375 -40.3125 82.875 C-36.70625353 83.45600638 -34.36057521 83.93214779 -31.8125 86.625 C-29.44601216 91.03156357 -29.37129323 93.04893417 -30 98 C-31.75913121 102.16636339 -33.83363661 104.24086879 -38 106 C-43.0027817 106.63527387 -44.94270393 106.61841846 -49.3125 104.0625 C-52.79880113 100.77568749 -53.87305232 96.53744726 -55 92 C-56.65 92 -58.3 92 -60 92 C-60.28948647 97.59673839 -60.23291136 101.2027767 -57 106 C-54.24477222 108.78184834 -51.52237449 111.42603475 -47.82421875 112.8203125 C-46 114 -46 114 -45.390625 116.6015625 C-45.34421875 117.59929687 -45.2978125 118.59703125 -45.25 119.625 C-45.19328125 120.62789063 -45.1365625 121.63078125 -45.078125 122.6640625 C-45.05234375 123.43492187 -45.0265625 124.20578125 -45 125 C-43.34385343 125.38218767 -41.67542976 125.71395102 -40 126 C-39.67 125.67 -39.34 125.34 -39 125 C-39 124.23171875 -39 123.4634375 -39 122.671875 C-39 119.57276816 -38.84343619 116.98841858 -38 114 C-35.85828016 112.14934553 -33.80895654 111.17859511 -31.2265625 110.0390625 C-27.40465567 108.25550598 -25.77455532 105.3554718 -23.75 101.8125 C-22.15468679 95.83007548 -21.90627836 90.16935864 -25.0625 84.6875 C-28.21388913 80.32675425 -31.78633873 76.60010778 -37.23828125 75.58203125 C-38.77581047 75.44507487 -40.31507616 75.32628127 -41.85546875 75.2265625 C-46.16364347 74.77141836 -49.04925656 73.07750923 -51.875 69.875 C-53.47060784 65.79733552 -53.75704098 62.31513358 -53 58 C-50.81171797 53.54528302 -50.81171797 53.54528302 -48 52 C-42.46864891 50.9456817 -37.75872627 50.88733644 -32.9375 53.9375 C-30.50259707 57.78621753 -29.17380475 61.61970423 -28 66 C-26.35 65.67 -24.7 65.34 -23 65 C-22.47624646 59.1339604 -23.07086885 55.64640072 -26.4296875 50.76171875 C-28.94464947 47.94020669 -31.59109928 46.60797204 -35 45 C-35.66 44.67 -36.32 44.34 -37 44 C-37.51059095 40.87263043 -37.62764188 38.11812485 -37 35 C-35.37045799 32.93226182 -33.58566961 31.54744945 -31.4921875 29.953125 C-28.53894136 27.63866877 -25.93489481 25.0478169 -23.3125 22.375 C-22.42175781 21.47523437 -21.53101563 20.57546875 -20.61328125 19.6484375 C-19.75089844 18.77445313 -18.88851562 17.90046875 -18 17 C-17.13761719 16.14792969 -16.27523437 15.29585937 -15.38671875 14.41796875 C-13.31859285 12.32276428 -11.39601415 10.18678093 -9.5 7.9375 C-2.62783554 0 -2.62783554 0 0 0 Z " fill="#F9F9F9" transform="translate(200,73)"/>
<path d="M0 0 C14.52 0 29.04 0 44 0 C44 82.5 44 165 44 250 C29.81 250 15.62 250 1 250 C1.00222061 246.89747833 1.00444122 243.79495667 1.00672913 240.59841919 C1.02661219 212.17258978 1.04154916 183.74676226 1.05106533 155.32092763 C1.05231609 151.59822908 1.05361041 147.87553055 1.05493164 144.15283203 C1.05519395 143.41168419 1.05545626 142.67053635 1.05572652 141.90692948 C1.06008233 129.89347192 1.0679694 117.88001913 1.0771528 105.86656441 C1.08649179 93.54715986 1.09205613 81.22775781 1.09408849 68.90834987 C1.09546321 61.30161524 1.09981103 53.69489408 1.10791647 46.0881636 C1.11380841 40.26336555 1.11445833 34.43857447 1.11310768 28.61377335 C1.113384 26.21835243 1.11538905 23.82293102 1.11920547 21.42751312 C1.12414289 18.17017226 1.12299808 14.91289017 1.12025452 11.6555481 C1.12316736 10.6964186 1.1260802 9.73728911 1.12908131 8.74909508 C1.12709026 7.88123088 1.12509921 7.01336668 1.12304783 6.11920357 C1.12342755 5.36659787 1.12380727 4.61399218 1.1241985 3.83858025 C1.11223435 1.90287339 1.11223435 1.90287339 0 0 Z " fill="#F8F8F8" transform="translate(206,0)"/>
<path d="M0 0 C11.88 0 23.76 0 36 0 C35.34 0.99 34.68 1.98 34 3 C33.69740477 4.98897503 33.69740477 4.98897503 33.73828697 7.19539928 C33.73082148 8.05480435 33.72335599 8.91420941 33.71566427 9.79965705 C33.717599 10.74420085 33.71953374 11.68874466 33.7215271 12.66191101 C33.7157347 13.66494461 33.7099423 14.66797822 33.70397437 15.70140678 C33.68690664 19.07790683 33.68409203 22.45427077 33.68115234 25.83081055 C33.67185885 28.2450189 33.66169105 30.65922402 33.65071106 33.07342529 C33.62901046 38.2790091 33.61341814 43.48457352 33.60334396 48.69019127 C33.58876785 56.2166666 33.56323407 63.74307326 33.53501268 71.26950834 C33.48952524 83.48019117 33.45291852 95.69088387 33.421875 107.90161133 C33.39169744 119.76425919 33.35735084 131.62688287 33.31738281 143.48950195 C33.31369049 144.58604057 33.31369049 144.58604057 33.30992357 145.70473149 C33.29754913 149.37201727 33.28509256 153.03930278 33.27259517 156.70658815 C33.16899815 187.13769235 33.07995216 217.56882396 33 248 C33.66 248 34.32 248 35 248 C35 248.66 35 249.32 35 250 C23.45 250 11.9 250 0 250 C0 167.5 0 85 0 0 Z " fill="#FAFAFA" transform="translate(0,0)"/>
<path d="M0 0 C3.14900701 1.38354344 5.15837124 2.96706891 7.49609375 5.4765625 C8.13740234 6.146875 8.77871094 6.8171875 9.43945312 7.5078125 C10.77355583 8.92146581 12.10168574 10.34077932 13.42382812 11.765625 C14.06642578 12.43335938 14.70902344 13.10109375 15.37109375 13.7890625 C15.94786865 14.40475098 16.52464355 15.02043945 17.11889648 15.65478516 C18.96077263 17.17657847 18.96077263 17.17657847 21.47265625 17.43530273 C24.76994666 16.86738651 25.81682741 15.69322068 28.06640625 13.24609375 C28.79923828 12.47458984 29.53207031 11.70308594 30.28710938 10.90820312 C31.03798828 10.09287109 31.78886719 9.27753906 32.5625 8.4375 C34.05186314 6.82094957 35.55267356 5.21484755 37.06640625 3.62109375 C37.72584229 2.9036499 38.38527832 2.18620605 39.06469727 1.44702148 C41 0 41 0 43.00268555 0.05541992 C45.44057524 1.20835908 46.97773316 2.58926358 48.890625 4.4921875 C49.59960938 5.19730469 50.30859375 5.90242188 51.0390625 6.62890625 C51.76867187 7.37011719 52.49828125 8.11132812 53.25 8.875 C53.99507813 9.60847656 54.74015625 10.34195312 55.5078125 11.09765625 C56.21164063 11.80535156 56.91546875 12.51304688 57.640625 13.2421875 C58.28547852 13.8904248 58.93033203 14.53866211 59.59472656 15.20654297 C61 17 61 17 61 20 C59.56640625 21.5144043 59.56640625 21.5144043 57.5625 23.13671875 C52.7971238 27.13202864 48.397313 31.41899749 44 35.8125 C43.22527344 36.57498047 42.45054687 37.33746094 41.65234375 38.12304688 C40.55599609 39.21649414 40.55599609 39.21649414 39.4375 40.33203125 C38.44556641 41.31780151 38.44556641 41.31780151 37.43359375 42.32348633 C35.78336744 43.88569456 35.78336744 43.88569456 36 46 C32.04150648 47.30475507 28.04329978 47.13295498 23.92675781 47.11352539 C22.71156212 47.11374443 22.71156212 47.11374443 21.47181702 47.1139679 C18.79889227 47.11327224 16.12603755 47.10549606 13.453125 47.09765625 C11.59796181 47.09579084 9.74279813 47.09436752 7.88763428 47.09336853 C3.00830726 47.08955305 -1.87098993 47.07973102 -6.75030518 47.06866455 C-11.7306681 47.05842961 -16.71103584 47.05386644 -21.69140625 47.04882812 C-31.4609506 47.0381079 -41.23047282 47.02104309 -51 47 C-50.0678839 45.89787418 -49.13361862 44.79756585 -48.19848633 43.69799805 C-47.41843987 42.77859688 -47.41843987 42.77859688 -46.62263489 41.84062195 C-43.63684064 38.45371188 -40.34056506 35.37427935 -37.06054688 32.27539062 C-34.31470665 29.60572756 -32.62827674 27.80272761 -32 24 C-28.49493705 20.31519023 -25.85682641 18.8106873 -20.9375 17.5625 C-16.80744884 16.46074269 -14.80685412 15.30061966 -12.28125 11.68359375 C-10.18216999 8.92535142 -7.50272208 6.84374339 -4.8671875 4.61328125 C-3.16296232 3.14080217 -1.56975784 1.61363306 0 0 Z " fill="#F9F9F9" transform="translate(120,11)"/>
<path d="M0 0 C4.875 0.875 4.875 0.875 6 2 C6.10030635 5.17060933 6.13437166 8.31951739 6.12698364 11.49060059 C6.12932363 13.00378002 6.12932363 13.00378002 6.13171089 14.54752874 C6.13572562 17.95552846 6.13252942 21.36348427 6.12939453 24.77148438 C6.13074836 27.20347622 6.13252819 29.63546786 6.13470459 32.06745911 C6.13880498 38.00398543 6.13818562 43.94050019 6.13529195 49.8770262 C6.13303809 54.69964999 6.13272532 59.52227024 6.13381577 64.34489441 C6.133969 65.02998442 6.13412223 65.71507444 6.13428011 66.42092475 C6.13459982 67.81245649 6.13492403 69.20398823 6.1352527 70.59551996 C6.13810762 83.65908746 6.13482027 96.72264795 6.12945233 109.78621429 C6.12498428 121.00738205 6.12576021 132.22853946 6.13037109 143.44970703 C6.13571664 156.46495373 6.13783293 169.48019427 6.13475883 182.49544191 C6.13444026 183.88199647 6.13412589 185.26855103 6.13381577 186.65510559 C6.13358435 187.6785549 6.13358435 187.6785549 6.13334826 188.72267994 C6.13248305 193.54226888 6.13394608 198.36185393 6.13629532 203.18144226 C6.13938473 209.66231014 6.13720082 216.14316303 6.13140106 222.62402916 C6.13007274 225.01019445 6.13046879 227.39636137 6.13266373 229.78252602 C6.13537242 233.02483987 6.13199756 236.26708971 6.12698364 239.50939941 C6.13032973 240.94560332 6.13032973 240.94560332 6.13374341 242.41082144 C6.1141498 248.8858502 6.1141498 248.8858502 5 250 C2.375 250.5625 2.375 250.5625 -1 250 C-2.89876984 248.30036943 -4.39964065 246.43736071 -5.98828125 244.4453125 C-9.65707779 239.98576564 -13.88319922 236.04225107 -18 232 C-18.48210937 232.42152344 -18.96421875 232.84304687 -19.4609375 233.27734375 C-20.09257812 233.82519531 -20.72421875 234.37304688 -21.375 234.9375 C-22.00148437 235.48277344 -22.62796875 236.02804688 -23.2734375 236.58984375 C-25 238 -25 238 -27 239 C-27 238.01 -27 237.02 -27 236 C-28.98 237.65 -30.96 239.3 -33 241 C-33.2585726 235.74235706 -32.91755914 233.19481824 -29.66015625 228.953125 C-28.70637305 227.93246715 -27.73584567 226.92722377 -26.75 225.9375 C-26.03299927 225.20406372 -26.03299927 225.20406372 -25.30151367 224.45581055 C-23.1636862 222.43090032 -21.38563106 221.1055604 -18.53125 220.32421875 C-14.60080459 221.37355063 -12.47319053 223.95824935 -9.75 226.875 C-9.20859375 227.43058594 -8.6671875 227.98617187 -8.109375 228.55859375 C-4.18486201 232.63027597 -4.18486201 232.63027597 -3 235 C-3 162.73 -3 90.46 -3 16 C-7.29 20.29 -11.58 24.58 -16 29 C-21 29 -21 29 -23.06469727 27.42358398 C-23.72526123 26.70501221 -24.3858252 25.98644043 -25.06640625 25.24609375 C-26.1656543 24.08883789 -26.1656543 24.08883789 -27.28710938 22.90820312 C-28.41342773 21.68520508 -28.41342773 21.68520508 -29.5625 20.4375 C-31.05186314 18.82094957 -32.55267356 17.21484755 -34.06640625 15.62109375 C-34.72584229 14.9036499 -35.38527832 14.18620605 -36.06469727 13.44702148 C-37.86565484 11.78962415 -37.86565484 11.78962415 -40.00927734 12.04882812 C-42.46312928 13.22128424 -43.91396853 14.62313821 -45.78515625 16.59765625 C-46.48060547 17.31630859 -47.17605469 18.03496094 -47.89257812 18.77539062 C-48.60865234 19.53013672 -49.32472656 20.28488281 -50.0625 21.0625 C-51.48379805 22.56014351 -52.91187983 24.0513873 -54.34765625 25.53515625 C-55.29137085 26.53107788 -55.29137085 26.53107788 -56.25415039 27.54711914 C-58 29 -58 29 -61 29 C-61 28.34 -61 27.68 -61 27 C-59.66827314 26.15890935 -58.33567941 25.31917463 -57 24.484375 C-52.55640854 21.18639696 -48.83522782 16.97165885 -45 13 C-45.66 13 -46.32 13 -47 13 C-47 12.34 -47 11.68 -47 11 C-47.66 11 -48.32 11 -49 11 C-47.4169423 6.7257442 -44.49431596 4.73468206 -41 2 C-36.98847164 4.17768682 -34.1776206 6.74487646 -31 10 C-29.90293674 10.88388983 -28.79872179 11.75897739 -27.6875 12.625 C-26.800625 13.40875 -25.91375 14.1925 -25 15 C-25 15.99 -25 16.98 -25 18 C-24.34 18 -23.68 18 -23 18 C-23 17.34 -23 16.68 -23 16 C-20.525 16.99 -20.525 16.99 -18 18 C-17.58637207 17.57589844 -17.17274414 17.15179687 -16.74658203 16.71484375 C-14.87792079 14.80472667 -13.00160497 12.90231189 -11.125 11 C-10.47402344 10.33226562 -9.82304687 9.66453125 -9.15234375 8.9765625 C-8.52714844 8.34492188 -7.90195313 7.71328125 -7.2578125 7.0625 C-6.6817627 6.47597656 -6.10571289 5.88945313 -5.51220703 5.28515625 C-4 4 -4 4 -2 4 C-1.34 2.68 -0.68 1.36 0 0 Z " fill="#201C1D" transform="translate(202,0)"/>
<path d="M0 0 C2.2199707 1.65234375 2.2199707 1.65234375 4.42578125 3.9375 C5.22177734 4.74960938 6.01777344 5.56171875 6.83789062 6.3984375 C7.65451172 7.25695312 8.47113281 8.11546875 9.3125 9 C10.56643555 10.28777344 10.56643555 10.28777344 11.84570312 11.6015625 C13.90879656 13.72360146 15.95934566 15.85641027 18 18 C21.54661662 15.07744076 24.97097242 12.12826847 28.09765625 8.75390625 C28.58943359 8.22732422 29.08121094 7.70074219 29.58789062 7.15820312 C30.58644902 6.0776439 31.57318044 4.98605519 32.54882812 3.88476562 C34.03515625 2.31640625 34.03515625 2.31640625 37 0 C40.47403627 -0.07291187 42.1495171 0.27681281 44.80078125 2.53125 C45.29964844 3.1809375 45.79851562 3.830625 46.3125 4.5 C49.0036145 7.80845257 51.76918319 10.946716 54.75 14 C55.48734375 14.763125 56.2246875 15.52625 56.984375 16.3125 C58.9452515 18.32096833 58.9452515 18.32096833 62 18 C62.26643311 17.4112207 62.53286621 16.82244141 62.80737305 16.21582031 C64.81679719 12.48244599 67.84765252 9.7422153 70.8125 6.75 C71.42931641 6.1003125 72.04613281 5.450625 72.68164062 4.78125 C73.59139648 3.86085937 73.59139648 3.86085937 74.51953125 2.921875 C75.34094604 2.08027832 75.34094604 2.08027832 76.17895508 1.22167969 C78.67822265 -0.45499747 80.04382075 -0.49523476 83 0 C85.2199707 1.65234375 85.2199707 1.65234375 87.42578125 3.9375 C88.22177734 4.74960938 89.01777344 5.56171875 89.83789062 6.3984375 C90.65451172 7.25695312 91.47113281 8.11546875 92.3125 9 C93.14845703 9.85851562 93.98441406 10.71703125 94.84570312 11.6015625 C96.90879656 13.72360146 98.95934566 15.85641027 101 18 C103.64 16.02 106.28 14.04 109 12 C109 14.31 109 16.62 109 19 C109.45375 18.34 109.9075 17.68 110.375 17 C110.91125 16.34 111.4475 15.68 112 15 C112.66 15 113.32 15 114 15 C114.33 15.66 114.66 16.32 115 17 C117.31 14.69 119.62 12.38 122 10 C126.52134218 13.71754802 130.77415761 17.64047364 134.9375 21.75 C135.43419189 22.23380127 135.93088379 22.71760254 136.44262695 23.21606445 C137.66847329 24.43848364 138.83934827 25.71551743 140 27 C140 27.66 140 28.32 140 29 C124.14418221 29.42264502 108.28991191 29.73892185 92.429842 29.93261909 C85.06344193 30.02499771 77.70056293 30.15063233 70.33642578 30.35791016 C63.90881785 30.53873951 57.48376038 30.65376578 51.05367935 30.69359291 C47.65504649 30.71684329 44.26370054 30.77039332 40.86743546 30.90314102 C18.60706469 31.67609266 18.60706469 31.67609266 10.20794678 24.87298584 C5.64840201 20.60360563 1.75660147 15.98255506 -2 11 C-4.64 12.98 -7.28 14.96 -10 17 C-10 16.01 -10 15.02 -10 14 C-10.99 13.67 -11.98 13.34 -13 13 C-13.9453125 11.234375 -13.9453125 11.234375 -14 9 C-12.3046875 6.640625 -12.3046875 6.640625 -9.875 4.25 C-9.08867188 3.45078125 -8.30234375 2.6515625 -7.4921875 1.828125 C-4.55576002 -0.32586883 -3.55535431 -0.48884052 0 0 Z " fill="#232021" transform="translate(61,221)"/>
<path d="M0 0 C39.93 0 79.86 0 121 0 C119.17361473 3.65277054 118.35256623 4.80626038 115.375 7.25 C111.00599915 10.93884504 106.99308451 14.91133634 103 19 C101.35 18.01 99.7 17.02 98 16 C98 16.66 98 17.32 98 18 C97.34 18 96.68 18 96 18 C96 17.01 96 16.02 96 15 C95.41347656 14.73058594 94.82695312 14.46117187 94.22265625 14.18359375 C92.00290721 13.00154813 90.32160632 11.71899616 88.4375 10.0625 C87.85871094 9.55847656 87.27992188 9.05445313 86.68359375 8.53515625 C85 7 85 7 83.47265625 5.37109375 C81.93240163 3.74690878 81.93240163 3.74690878 79 3 C75.535 6.96 75.535 6.96 72 11 C73.32 11 74.64 11 76 11 C76 14.8212526 74.52866208 15.86228993 71.9296875 18.48046875 C71.37539062 19.02316406 70.82109375 19.56585937 70.25 20.125 C69.71117187 20.67542969 69.17234375 21.22585937 68.6171875 21.79296875 C65.82511249 24.56461394 63.86928707 26.28141812 60 27 C60 27.66 60 28.32 60 29 C56.84795019 27.60652624 54.73828227 25.97514921 52.328125 23.5234375 C51.66425781 22.853125 51.00039062 22.1828125 50.31640625 21.4921875 C49.63449219 20.79351563 48.95257813 20.09484375 48.25 19.375 C47.55261719 18.66859375 46.85523438 17.9621875 46.13671875 17.234375 C44.41987512 15.49401297 42.70788168 13.74915019 41 12 C36.36108044 14.22075936 32.88409142 16.67386288 30 21 C29.34 21 28.68 21 28 21 C27.773125 21.5775 27.54625 22.155 27.3125 22.75 C25.61295453 25.66350652 23.82092802 27.16311664 21 29 C18.6015625 29.390625 18.6015625 29.390625 16 29 C13.82421875 27.09375 13.82421875 27.09375 11.6875 24.5 C10.9140625 23.5925 10.140625 22.685 9.34375 21.75 C8.5703125 20.8425 7.796875 19.935 7 19 C5.58170657 17.48182675 4.14566031 15.9799239 2.6875 14.5 C2.07261719 13.8709375 1.45773438 13.241875 0.82421875 12.59375 C-1.02432875 10.97874491 -2.76281075 9.98772152 -5 9 C-4.38125 8.71125 -3.7625 8.4225 -3.125 8.125 C-0.86674235 7.06279958 -0.86674235 7.06279958 1 5 C0.67156616 2.93618425 0.67156616 2.93618425 0 1 C0 0.67 0 0.34 0 0 Z " fill="#242122" transform="translate(81,0)"/>
<path d="M0 0 C2.375 0.8125 2.375 0.8125 3.375 2.8125 C3.44496014 4.51952735 3.45940154 6.22918003 3.4375 7.9375 C3.42847656 8.84757812 3.41945312 9.75765625 3.41015625 10.6953125 C3.39855469 11.39398438 3.38695312 12.09265625 3.375 12.8125 C4.24125 13.039375 5.1075 13.26625 6 13.5 C11.02511133 15.45420996 14.26061423 18.14092134 17.25 22.625 C18.68780151 26.69877095 18.73382818 29.50656186 18.375 33.8125 C17.715 34.4725 17.055 35.1325 16.375 35.8125 C13.75 35.4375 13.75 35.4375 11.375 34.8125 C11.20484375 34.20921875 11.0346875 33.6059375 10.859375 32.984375 C10.61703125 32.18515625 10.3746875 31.3859375 10.125 30.5625 C9.89296875 29.77359375 9.6609375 28.9846875 9.421875 28.171875 C8.13461868 25.2707451 6.89736852 23.74776551 4.375 21.8125 C0.31259696 21.01216245 -3.54161699 21.17375852 -7.625 21.8125 C-10.61380188 23.54843138 -10.61380188 23.54843138 -11.625 26.8125 C-12.27761251 31.16062915 -12.09042243 34.66119189 -10.4375 38.75 C-8.20081103 41.29519779 -6.910639 41.95537678 -3.625 42.8125 C-2.20837288 42.87588993 -0.7917016 42.93829697 0.625 43 C7.18856388 43.62457953 11.61846602 47.64841395 15.828125 52.48046875 C19.05090916 57.25790584 19.22183475 62.29943298 18.375 67.8125 C16.53578242 73.74346007 13.41676934 77.31412944 8.375 80.8125 C6.72052348 81.50886893 5.0554115 82.18127944 3.375 82.8125 C3.32601562 83.58335937 3.27703125 84.35421875 3.2265625 85.1484375 C3.15179688 86.15132813 3.07703125 87.15421875 3 88.1875 C2.93039063 89.18523437 2.86078125 90.18296875 2.7890625 91.2109375 C2.375 93.8125 2.375 93.8125 0.375 95.8125 C-4.18055556 95.25694444 -4.18055556 95.25694444 -5.625 93.8125 C-5.69726502 91.95962498 -5.7088122 90.10416122 -5.6875 88.25 C-5.67847656 87.23808594 -5.66945312 86.22617188 -5.66015625 85.18359375 C-5.64855469 84.40113281 -5.63695312 83.61867188 -5.625 82.8125 C-6.36363281 82.55082031 -7.10226563 82.28914063 -7.86328125 82.01953125 C-12.90418128 79.81636561 -17.23841655 76.06569811 -20.125 71.375 C-20.83022121 67.76074128 -20.80919299 64.49635977 -20.625 60.8125 C-19.625 59.8125 -19.625 59.8125 -17.1875 59.625 C-14.625 59.8125 -14.625 59.8125 -12.625 61.8125 C-12.11950279 63.27621993 -11.66635401 64.75847299 -11.25 66.25 C-10.36639703 68.95739432 -9.75267181 70.65645668 -7.9375 72.875 C-4.49371439 74.2711293 -1.24854577 74.34558626 2.375 73.8125 C5.21624653 72.57717542 6.79597859 71.5569561 8.6875 69.125 C9.70582652 65.69971989 10.14168962 62.30158753 9.375 58.8125 C7.33862244 55.49178839 6.11325434 54.06051486 2.38671875 52.80859375 C1.28972656 52.62425781 0.19273437 52.43992188 -0.9375 52.25 C-7.64550146 50.9038876 -12.12404872 49.44863783 -16.9375 44.375 C-20.85940778 38.4195104 -21.56797965 32.81608843 -20.625 25.8125 C-18.30621493 19.67393061 -14.16079625 16.09297185 -8.625 12.8125 C-7.635 12.8125 -6.645 12.8125 -5.625 12.8125 C-5.67720703 11.78189453 -5.67720703 11.78189453 -5.73046875 10.73046875 C-5.77107422 9.37888672 -5.77107422 9.37888672 -5.8125 8 C-5.84730469 7.10667969 -5.88210937 6.21335937 -5.91796875 5.29296875 C-5.625 2.8125 -5.625 2.8125 -4.27734375 0.9765625 C-2.625 -0.1875 -2.625 -0.1875 0 0 Z " fill="#201E1F" transform="translate(159.625,104.1875)"/>
<path d="M0 0 C3.36722284 0.61931919 4.58749116 1.95161517 6.953125 4.40234375 C7.74912109 5.21445313 8.54511719 6.0265625 9.36523438 6.86328125 C10.18185547 7.72179687 10.99847656 8.5803125 11.83984375 9.46484375 C13.0937793 10.75261719 13.0937793 10.75261719 14.37304688 12.06640625 C16.43614031 14.18844521 18.48668941 16.32125402 20.52734375 18.46484375 C23.16734375 16.48484375 25.80734375 14.50484375 28.52734375 12.46484375 C28.52734375 14.77484375 28.52734375 17.08484375 28.52734375 19.46484375 C28.98109375 18.80484375 29.43484375 18.14484375 29.90234375 17.46484375 C30.43859375 16.80484375 30.97484375 16.14484375 31.52734375 15.46484375 C32.18734375 15.46484375 32.84734375 15.46484375 33.52734375 15.46484375 C34.02234375 16.45484375 34.02234375 16.45484375 34.52734375 17.46484375 C37.99234375 13.99984375 37.99234375 13.99984375 41.52734375 10.46484375 C46.04868593 14.18239177 50.30150136 18.10531739 54.46484375 22.21484375 C54.96153564 22.69864502 55.45822754 23.18244629 55.9699707 23.6809082 C57.19581704 24.90332739 58.36669202 26.18036118 59.52734375 27.46484375 C59.52734375 28.12484375 59.52734375 28.78484375 59.52734375 29.46484375 C33.78734375 29.46484375 8.04734375 29.46484375 -18.47265625 29.46484375 C-11.72265625 21.58984375 -11.72265625 21.58984375 -8.59765625 18.52734375 C-8.00210938 17.94082031 -7.4065625 17.35429687 -6.79296875 16.75 C-6.35726562 16.32589844 -5.9215625 15.90179688 -5.47265625 15.46484375 C-6.46265625 15.95984375 -6.46265625 15.95984375 -7.47265625 16.46484375 C-12.15837054 15.77912946 -12.15837054 15.77912946 -13.47265625 14.46484375 C-14.46265625 15.94984375 -14.46265625 15.94984375 -15.47265625 17.46484375 C-16.46265625 17.13484375 -17.45265625 16.80484375 -18.47265625 16.46484375 C-15.93079856 13.77782638 -13.36105746 11.11921018 -10.78515625 8.46484375 C-10.06392578 7.70171875 -9.34269531 6.93859375 -8.59960938 6.15234375 C-7.89384766 5.43046875 -7.18808594 4.70859375 -6.4609375 3.96484375 C-5.81680908 3.29453125 -5.17268066 2.62421875 -4.5090332 1.93359375 C-2.47265625 0.46484375 -2.47265625 0.46484375 0 0 Z " fill="#242122" transform="translate(141.47265625,220.53515625)"/>
<path d="M0 0 C1.21879852 0.00607269 1.21879852 0.00607269 2.46221924 0.01226807 C3.31761292 0.00876343 4.17300659 0.00525879 5.05432129 0.00164795 C7.89088988 -0.00717764 10.72721047 -0.00131732 13.56378174 0.00543213 C15.52911426 0.00408572 17.49444646 0.00214538 19.45977783 -0.00036621 C23.58236863 -0.0033186 27.70487286 0.00098385 31.82745361 0.01031494 C37.12064503 0.02170953 42.41363365 0.01515067 47.70681763 0.00317001 C51.76618995 -0.0040455 55.82551394 -0.00176208 59.8848877 0.0034256 C61.83699568 0.00476295 63.78910802 0.0031114 65.74121094 -0.00153351 C68.46604089 -0.00659367 71.1905391 0.00110425 73.91534424 0.01226807 C74.72787659 0.0082196 75.54040894 0.00417114 76.37756348 0 C81.96025361 0.042529 81.96025361 0.042529 84.18878174 2.27105713 C84.43878174 4.77105713 84.43878174 4.77105713 84.18878174 7.27105713 C81.61151437 9.8483245 79.88980451 9.51110587 76.37756348 9.53100586 C75.56503113 9.52538635 74.75249878 9.51976685 73.91534424 9.51397705 C73.05995056 9.5158754 72.20455688 9.51777374 71.32324219 9.51972961 C68.48666308 9.52344399 65.65033821 9.51272377 62.81378174 9.50152588 C60.84845001 9.50033433 58.88311771 9.49988086 56.91778564 9.50013733 C52.79519088 9.49857131 48.67268282 9.49027269 44.55010986 9.47686768 C39.25696476 9.45987769 33.96391503 9.45605328 28.67074585 9.45681286 C24.61137984 9.45654135 20.55203482 9.45106318 16.49267578 9.44381142 C14.54056965 9.44062186 12.58846114 9.43865667 10.63635254 9.43791771 C7.91159996 9.43575719 5.18694991 9.42701917 2.46221924 9.4163208 C1.24342072 9.41700058 1.24342072 9.41700058 0 9.41769409 C-5.58226454 9.38553399 -5.58226454 9.38553399 -7.81121826 8.27105713 C-7.93621826 5.39605713 -7.93621826 5.39605713 -7.81121826 2.27105713 C-5.23556549 -0.30459564 -3.51064754 0.02674415 0 0 Z " fill="#242122" transform="translate(72.81121826171875,57.72894287109375)"/>
<path d="M0 0 C1.11020508 0.02618408 2.22041016 0.05236816 3.36425781 0.0793457 C4.56953125 0.09545898 5.77480469 0.11157227 7.01660156 0.12817383 C8.27085938 0.17006836 9.52511719 0.21196289 10.81738281 0.25512695 C12.72197266 0.28896484 12.72197266 0.28896484 14.66503906 0.32348633 C17.80034054 0.38242057 20.93326877 0.46465616 24.06738281 0.56762695 C23.49212218 3.81765237 22.61221774 5.36398992 20.19628906 7.59106445 C19.62201172 8.13762695 19.04773438 8.68418945 18.45605469 9.24731445 C17.24459824 10.37196065 16.03107305 11.49438277 14.81542969 12.61450195 C11.14759616 16.11393551 9.5229322 18.60851899 8.06738281 23.56762695 C2.75445155 25.33860404 -2.93517971 24.75226837 -8.49511719 24.75512695 C-9.75259766 24.76737305 -11.01007813 24.77961914 -12.30566406 24.79223633 C-13.50384766 24.79416992 -14.70203125 24.79610352 -15.93652344 24.7980957 C-17.03810791 24.80220459 -18.13969238 24.80631348 -19.2746582 24.81054688 C-21.93261719 24.56762695 -21.93261719 24.56762695 -23.93261719 22.56762695 C-21.83014187 17.78023383 -19.13932648 14.31084717 -15.43261719 10.69262695 C-14.94664063 10.19504883 -14.46066406 9.6974707 -13.95996094 9.18481445 C-10.31296145 5.56762695 -10.31296145 5.56762695 -6.93261719 5.56762695 C-6.34061523 4.75269775 -5.74861328 3.93776855 -5.13867188 3.09814453 C-2.93261719 0.56762695 -2.93261719 0.56762695 0 0 Z " fill="#FAFAFA" transform="translate(87.9326171875,133.432373046875)"/>
<path d="M0 0 C0.66 0 1.32 0 2 0 C1.67 81.18 1.34 162.36 1 246 C0.34 246 -0.32 246 -1 246 C-1.02278983 214.80547109 -1.0404979 183.61094436 -1.05106533 152.41640911 C-1.05231611 148.73748562 -1.05361042 145.05856214 -1.05493164 141.37963867 C-1.05519395 140.64720036 -1.05545626 139.91476205 -1.05572652 139.16012865 C-1.06008333 127.28502582 -1.06797094 115.4099278 -1.0771528 103.53482784 C-1.08648903 91.35893969 -1.09205554 79.18305409 -1.09408849 67.00716251 C-1.09546379 59.48794689 -1.0998147 51.96874489 -1.10791647 44.44953346 C-1.11380426 38.69350728 -1.11445904 32.93748992 -1.11310768 27.18146133 C-1.1133842 24.81303384 -1.11539185 22.44460585 -1.11920547 20.07618141 C-1.12413603 16.85790213 -1.12300066 13.63968246 -1.12025452 10.42140198 C-1.12316736 9.47103249 -1.1260802 8.520663 -1.12908131 7.54149443 C-1.11412121 1.11412121 -1.11412121 1.11412121 0 0 Z " fill="#444243" transform="translate(34,2)"/>
<path d="M0 0 C0.91442368 -0.00637985 1.82884735 -0.0127597 2.77098083 -0.01933289 C3.76573929 -0.02044571 4.76049774 -0.02155853 5.78540039 -0.02270508 C6.80026016 -0.02603348 7.81511993 -0.02936188 8.86073303 -0.03279114 C11.01196844 -0.03786483 13.16321174 -0.04019933 15.31445312 -0.04003906 C18.615447 -0.04222467 21.91610639 -0.0603734 25.21704102 -0.0793457 C27.30232632 -0.08227964 29.38761323 -0.08426443 31.47290039 -0.08520508 C32.46563461 -0.09239059 33.45836884 -0.09957611 34.48118591 -0.10697937 C35.39876175 -0.10390274 36.31633759 -0.10082611 37.26171875 -0.09765625 C38.07144638 -0.09908127 38.88117401 -0.10050629 39.71543884 -0.10197449 C41.69555664 0.14526367 41.69555664 0.14526367 43.69555664 2.14526367 C43.88305664 4.70776367 43.88305664 4.70776367 43.69555664 7.14526367 C42.1119706 8.72884971 40.49565304 8.28040031 38.29931641 8.29052734 C36.89764977 8.30009712 36.89764977 8.30009712 35.46766663 8.30986023 C34.45103439 8.31097305 33.43440216 8.31208588 32.38696289 8.31323242 C31.34990707 8.31656082 30.31285126 8.31988922 29.24436951 8.32331848 C27.04605555 8.32839227 24.84773387 8.33072667 22.64941406 8.33056641 C19.27599463 8.33275205 15.90290247 8.35090081 12.52954102 8.36987305 C10.39868277 8.37280697 8.26782295 8.37479177 6.13696289 8.37573242 C5.12235489 8.38291794 4.10774689 8.39010345 3.06239319 8.39750671 C2.1247966 8.39443008 1.18720001 8.39135345 0.22119141 8.38818359 C-0.60630112 8.38960861 -1.43379364 8.39103363 -2.28636169 8.39250183 C-4.30444336 8.14526367 -4.30444336 8.14526367 -6.30444336 6.14526367 C-5.6673014 0.92069963 -5.15960204 0.02431275 0 0 Z " fill="#1F1D1D" transform="translate(71.304443359375,124.854736328125)"/>
<path d="M0 0 C0.93767212 -0.00315216 1.87534424 -0.00630432 2.84143066 -0.009552 C3.86119995 -0.00752777 4.88096924 -0.00550354 5.93164062 -0.00341797 C7.49078186 -0.00485306 7.49078186 -0.00485306 9.0814209 -0.00631714 C11.28393616 -0.0069991 13.48645342 -0.00514374 15.68896484 -0.00097656 C19.07328782 0.00437146 22.45747806 -0.00092105 25.84179688 -0.00732422 C27.97591175 -0.00666344 30.11002655 -0.00538228 32.24414062 -0.00341797 C33.26390991 -0.0054422 34.2836792 -0.00746643 35.33435059 -0.009552 C36.74085876 -0.00482376 36.74085876 -0.00482376 38.17578125 0 C39.42035095 0.00119339 39.42035095 0.00119339 40.69006348 0.00241089 C42.58789062 0.12939453 42.58789062 0.12939453 43.58789062 1.12939453 C43.77539062 3.56689453 43.77539062 3.56689453 43.58789062 6.12939453 C41.14660394 8.57068122 40.51708249 8.38158153 37.16992188 8.38818359 C35.79839966 8.39764008 35.79839966 8.39764008 34.39916992 8.4072876 C32.91477417 8.4012149 32.91477417 8.4012149 31.40039062 8.39501953 C30.3869458 8.39693298 29.37350098 8.39884644 28.3293457 8.40081787 C26.18407951 8.40218044 24.03880509 8.398479 21.89355469 8.39013672 C18.60137491 8.37943835 15.30974084 8.39002972 12.01757812 8.40283203 C9.93684775 8.40151045 7.85611771 8.39894808 5.77539062 8.39501953 C4.78579346 8.39906799 3.79619629 8.40311646 2.77661133 8.4072876 C1.86226318 8.40098328 0.94791504 8.39467896 0.00585938 8.38818359 C-0.80085205 8.38659241 -1.60756348 8.38500122 -2.4387207 8.38336182 C-4.41210938 8.12939453 -4.41210938 8.12939453 -6.41210938 6.12939453 C-5.76583124 0.82991382 -5.22242363 0.00500766 0 0 Z " fill="#1B191A" transform="translate(71.412109375,91.87060546875)"/>
<path d="M0 0 C2.375 0.8125 2.375 0.8125 3.375 2.8125 C3.44496014 4.51952735 3.45940154 6.22918003 3.4375 7.9375 C3.42847656 8.84757812 3.41945312 9.75765625 3.41015625 10.6953125 C3.39855469 11.39398438 3.38695312 12.09265625 3.375 12.8125 C4.24125 13.039375 5.1075 13.26625 6 13.5 C11.02511133 15.45420996 14.26061423 18.14092134 17.25 22.625 C18.68780151 26.69877095 18.73382818 29.50656186 18.375 33.8125 C17.715 34.4725 17.055 35.1325 16.375 35.8125 C13.75 35.4375 13.75 35.4375 11.375 34.8125 C11.20484375 34.20921875 11.0346875 33.6059375 10.859375 32.984375 C9.03424943 26.42678354 9.03424943 26.42678354 4.375 21.8125 C1.84251549 21.39817031 -0.62354512 21.18755766 -3.1875 21.0859375 C-5.76744797 20.79652026 -7.3617479 20.03192462 -9.625 18.8125 C-10.285 18.8125 -10.945 18.8125 -11.625 18.8125 C-11.295 17.1625 -10.965 15.5125 -10.625 13.8125 C-8.975 13.4825 -7.325 13.1525 -5.625 12.8125 C-5.65980469 12.12542969 -5.69460937 11.43835938 -5.73046875 10.73046875 C-5.75753906 9.82941406 -5.78460938 8.92835937 -5.8125 8 C-5.84730469 7.10667969 -5.88210937 6.21335937 -5.91796875 5.29296875 C-5.625 2.8125 -5.625 2.8125 -4.27734375 0.9765625 C-2.625 -0.1875 -2.625 -0.1875 0 0 Z " fill="#2B2829" transform="translate(159.625,104.1875)"/>
<path d="M0 0 C12.54 0 25.08 0 38 0 C34.01612811 4.64785054 30.06191834 9.12016468 25.75 13.4375 C24.95722656 14.24864258 24.95722656 14.24864258 24.1484375 15.07617188 C22.80509873 16.42462488 21.40658109 17.71765287 20 19 C19.34 19 18.68 19 18 19 C18 18.34 18 17.68 18 17 C17.4112207 16.73646729 16.82244141 16.47293457 16.21582031 16.20141602 C13.90792806 14.95007867 12.39111624 13.63498332 10.546875 11.77734375 C9.928125 11.15666016 9.309375 10.53597656 8.671875 9.89648438 C8.03765625 9.25001953 7.4034375 8.60355469 6.75 7.9375 C6.1003125 7.28716797 5.450625 6.63683594 4.78125 5.96679688 C0 1.14034598 0 1.14034598 0 0 Z " fill="#F7F7F7" transform="translate(81,0)"/>
<path d="M0 0 C12.54 0 25.08 0 38 0 C34.27011522 4.35153224 30.74869911 8.3499036 26.6875 12.3125 C23.42613581 15.3504529 23.42613581 15.3504529 21 19 C18 19 18 19 16.46484375 17.50390625 C15.96082031 16.86324219 15.45679688 16.22257812 14.9375 15.5625 C12.8328667 12.84124807 12.8328667 12.84124807 10 11 C10 10.34 10 9.68 10 9 C8.68 8.34 7.36 7.68 6 7 C4.02 4.69 2.04 2.38 0 0 Z " fill="#FBFBFB" transform="translate(39,0)"/>
<path d="M0 0 C12.21 0 24.42 0 37 0 C35.17361473 3.65277054 34.35256623 4.80626038 31.375 7.25 C27.00599915 10.93884504 22.99308451 14.91133634 19 19 C14.27100612 15.13082319 9.88730678 10.99697964 5.5625 6.6875 C5.01819336 6.14770508 4.47388672 5.60791016 3.91308594 5.05175781 C0 1.12372693 0 1.12372693 0 0 Z " fill="#F9F9F9" transform="translate(165,0)"/>
<path d="M0 0 C12.21 0 24.42 0 37 0 C33.27011522 4.35153224 29.74869911 8.3499036 25.6875 12.3125 C22.42613581 15.3504529 22.42613581 15.3504529 20 19 C16.75723273 17.576445 14.59906696 15.84528935 12.109375 13.33984375 C11.40039062 12.62892578 10.69140625 11.91800781 9.9609375 11.18554688 C9.23132813 10.44369141 8.50171875 9.70183594 7.75 8.9375 C7.00492188 8.19177734 6.25984375 7.44605469 5.4921875 6.67773438 C0 1.14028159 0 1.14028159 0 0 Z " fill="#F8F8F8" transform="translate(123,0)"/>
<path d="M0 0 C4.72899388 3.86917681 9.11269322 8.00302036 13.4375 12.3125 C14.25395996 13.12219238 14.25395996 13.12219238 15.08691406 13.94824219 C19 17.87627307 19 17.87627307 19 19 C6.79 19 -5.42 19 -18 19 C-11.25 11.125 -11.25 11.125 -8.7890625 8.69140625 C-8.26699219 8.17255859 -7.74492187 7.65371094 -7.20703125 7.11914062 C-6.68496094 6.60544922 -6.16289062 6.09175781 -5.625 5.5625 C-5.07972656 5.02173828 -4.53445312 4.48097656 -3.97265625 3.92382812 C-2.65076536 2.61353277 -1.32572382 1.30641716 0 0 Z " fill="#F6F5F5" transform="translate(141,231)"/>
<path d="M0 0 C3.1195572 1.38685223 5.25855799 3.00189491 7.671875 5.40625 C8.66767578 6.39818359 8.66767578 6.39818359 9.68359375 7.41015625 C10.36550781 8.09980469 11.04742187 8.78945312 11.75 9.5 C12.44738281 10.18964844 13.14476563 10.87929687 13.86328125 11.58984375 C14.52199219 12.25113281 15.18070313 12.91242188 15.859375 13.59375 C16.46233398 14.19896484 17.06529297 14.80417969 17.68652344 15.42773438 C19 17 19 17 19 19 C7.12 19 -4.76 19 -17 19 C-13.27011522 14.64846776 -9.74869911 10.6500964 -5.6875 6.6875 C-2.42613581 3.6495471 -2.42613581 3.6495471 0 0 Z " fill="#F5F5F5" transform="translate(99,231)"/>
<path d="M0 0 C4.72899388 3.86917681 9.11269322 8.00302036 13.4375 12.3125 C14.25395996 13.12219238 14.25395996 13.12219238 15.08691406 13.94824219 C19 17.87627307 19 17.87627307 19 19 C6.79 19 -5.42 19 -18 19 C-11.25 11.125 -11.25 11.125 -8.7890625 8.69140625 C-8.26699219 8.17255859 -7.74492188 7.65371094 -7.20703125 7.11914062 C-6.68496094 6.60544922 -6.16289063 6.09175781 -5.625 5.5625 C-5.07972656 5.02173828 -4.53445312 4.48097656 -3.97265625 3.92382812 C-2.65076536 2.61353277 -1.32572382 1.30641716 0 0 Z " fill="#F8F7F8" transform="translate(58,231)"/>
<path d="M0 0 C4.52134218 3.71754802 8.77415761 7.64047364 12.9375 11.75 C13.68253784 12.4757019 13.68253784 12.4757019 14.44262695 13.21606445 C15.66847329 14.43848364 16.83934827 15.71551743 18 17 C18 17.66 18 18.32 18 19 C6.12 19 -5.76 19 -18 19 C-11.25 11.125 -11.25 11.125 -8.7890625 8.69140625 C-8.26699219 8.17255859 -7.74492187 7.65371094 -7.20703125 7.11914062 C-6.68496094 6.60544922 -6.16289062 6.09175781 -5.625 5.5625 C-5.07972656 5.02173828 -4.53445312 4.48097656 -3.97265625 3.92382812 C-2.65076536 2.61353277 -1.32572382 1.30641716 0 0 Z " fill="#F6F6F6" transform="translate(183,231)"/>
<path d="M0 0 C0.74584854 0.00091141 1.49169708 0.00182281 2.26014709 0.00276184 C3.02706375 -0.00152328 3.79398041 -0.00580841 4.58413696 -0.01022339 C6.20733146 -0.01597014 7.83055172 -0.0164644 9.45375061 -0.01213074 C11.93849128 -0.00897351 14.42203836 -0.03241445 16.90663147 -0.05778503 C18.48280184 -0.06005827 20.05897542 -0.06076141 21.63514709 -0.05973816 C22.75088356 -0.07355278 22.75088356 -0.07355278 23.88916016 -0.08764648 C29.00472766 -0.04173617 29.00472766 -0.04173617 31.51820374 1.66218567 C32.51405334 3.30354309 32.51405334 3.30354309 32.32655334 5.92854309 C31.51405334 8.30354309 31.51405334 8.30354309 29.51405334 9.30354309 C26.91131902 9.41447625 24.33613969 9.46764387 21.73280334 9.47151184 C20.96351501 9.47484024 20.19422668 9.47816864 19.40162659 9.4815979 C17.77423196 9.48666313 16.14682694 9.48900635 14.51942444 9.48884583 C12.0239716 9.49103439 9.52895929 9.50919963 7.03358459 9.52815247 C5.45415903 9.53108601 3.87473136 9.53307107 2.29530334 9.53401184 C1.54631775 9.54119736 0.79733215 9.54838287 0.02565002 9.55578613 C-5.25711906 9.53237069 -5.25711906 9.53237069 -7.48594666 7.30354309 C-7.73594666 4.80354309 -7.73594666 4.80354309 -7.48594666 2.30354309 C-4.97772565 -0.20467791 -3.42440723 0.04724542 0 0 Z " fill="#2C292A" transform="translate(72.48594665527344,157.6964569091797)"/>
<path d="M0 0 C1.94458008 1.37695313 1.94458008 1.37695313 3.76953125 3.28125 C4.43017578 3.95800781 5.09082031 4.63476562 5.77148438 5.33203125 C6.44501953 6.04746094 7.11855469 6.76289062 7.8125 7.5 C8.50537109 8.21542969 9.19824219 8.93085938 9.91210938 9.66796875 C11.61985699 11.43460421 13.31486688 13.21182487 15 15 C14.67 15.99 14.34 16.98 14 18 C13.34 18 12.68 18 12 18 C12 17.01 12 16.02 12 15 C11.41347656 14.73058594 10.82695312 14.46117187 10.22265625 14.18359375 C8.00290721 13.00154813 6.32160632 11.71899616 4.4375 10.0625 C3.85871094 9.55847656 3.27992188 9.05445313 2.68359375 8.53515625 C1 7 1 7 -0.52734375 5.37109375 C-2.06759837 3.74690878 -2.06759837 3.74690878 -5 3 C-7.31 5.64 -9.62 8.28 -12 11 C-10.68 11 -9.36 11 -8 11 C-8 14.8212526 -9.47133792 15.86228993 -12.0703125 18.48046875 C-12.62460938 19.02316406 -13.17890625 19.56585937 -13.75 20.125 C-14.28882813 20.67542969 -14.82765625 21.22585937 -15.3828125 21.79296875 C-18.17488751 24.56461394 -20.13071293 26.28141812 -24 27 C-24 27.66 -24 28.32 -24 29 C-27.42527887 27.52651292 -29.64955058 25.59092154 -32.25 22.9375 C-32.95640625 22.22464844 -33.6628125 21.51179688 -34.390625 20.77734375 C-36 19 -36 19 -36 18 C-25.625 18 -25.625 18 -22 19 C-21.73807861 18.41573242 -21.47615723 17.83146484 -21.20629883 17.22949219 C-19.08225494 13.30381545 -15.80938955 10.39867412 -12.6875 7.25 C-12.02298828 6.55261719 -11.35847656 5.85523438 -10.67382812 5.13671875 C-10.02220703 4.47800781 -9.37058594 3.81929688 -8.69921875 3.140625 C-8.10971436 2.53766602 -7.52020996 1.93470703 -6.9128418 1.31347656 C-4.3851749 -0.42217729 -3.00959983 -0.482334 0 0 Z " fill="#262324" transform="translate(165,0)"/>
<path d="M0 0 C3.90285767 1.58667578 6.33520982 4.13350481 9.25 7.125 C10.14203125 8.03507813 11.0340625 8.94515625 11.953125 9.8828125 C12.62859375 10.58148438 13.3040625 11.28015625 14 12 C19.10904269 10.46726203 19.10904269 10.46726203 23 7 C23.33 7.66 23.66 8.32 24 9 C27.60992379 8.34414811 27.60992379 8.34414811 31 7 C29.32729531 11.22794069 26.32824761 14.07507255 23.1875 17.25 C22.40536133 18.08144531 22.40536133 18.08144531 21.60742188 18.9296875 C19.27496289 21.29417776 17.60649267 22.87129661 14.3125 23.5703125 C11.41579556 22.85592255 10.61960126 21.97562529 8.8125 19.625 C5.93088079 16.0910582 2.94082119 12.76048978 -0.25 9.5 C-1.08015625 8.6440625 -1.9103125 7.788125 -2.765625 6.90625 C-4.8908712 4.67548141 -4.8908712 4.67548141 -8 5 C-8 4.34 -8 3.68 -8 3 C-7.2575 3.20625 -6.515 3.4125 -5.75 3.625 C-2.67669159 4.04408751 -1.57213134 3.61949011 1 2 C0.67 1.34 0.34 0.68 0 0 Z " fill="#191718" transform="translate(106,227)"/>
<path d="M0 0 C11.43921636 -0.04626844 22.87841059 -0.08184119 34.31770134 -0.10362434 C39.62898938 -0.11407729 44.94021356 -0.12826397 50.25146484 -0.15087891 C55.37372595 -0.17255352 60.4959255 -0.18455723 65.61822891 -0.18975449 C67.5759287 -0.19345994 69.53362498 -0.20069541 71.49129868 -0.21146011 C74.22588221 -0.22590357 76.9602089 -0.22798096 79.69482422 -0.22705078 C80.51049866 -0.23424133 81.3261731 -0.24143188 82.16656494 -0.24884033 C87.77189568 -0.22810432 87.77189568 -0.22810432 90 2 C89.625 4.125 89.625 4.125 89 6 C88.01 4.515 88.01 4.515 87 3 C84.28137045 2.68391882 81.7853401 2.56260529 79.06201172 2.56762695 C78.24241974 2.5574353 77.42282776 2.54724365 76.57839966 2.53674316 C73.86209391 2.50648406 71.14614002 2.4973277 68.4296875 2.48828125 C66.54923315 2.47144411 64.66879013 2.45329519 62.7883606 2.43388367 C57.83343035 2.38627266 52.87854599 2.35653526 47.92346191 2.33044434 C42.8694553 2.30069465 37.81560699 2.25414523 32.76171875 2.20898438 C22.84122845 2.12282507 12.92070567 2.05553612 3 2 C3 2.99 3 3.98 3 5 C1.68 4.67 0.36 4.34 -1 4 C-0.67 2.68 -0.34 1.36 0 0 Z " fill="#403F40" transform="translate(67,58)"/>
<path d="M0 0 C2.475 0.495 2.475 0.495 5 1 C4.41866438 4.36816491 3.38148014 5.97956724 0.9453125 8.34765625 C0.33042969 8.95287109 -0.28445312 9.55808594 -0.91796875 10.18164062 C-1.56378906 10.80232422 -2.20960938 11.42300781 -2.875 12.0625 C-3.51308594 12.68705078 -4.15117187 13.31160156 -4.80859375 13.95507812 C-5.99905277 15.11944149 -7.19257177 16.28069059 -8.39013672 17.43774414 C-9.94205388 18.94376748 -11.47477529 20.46699648 -13 22 C-17.60388182 18.24172913 -21.58816922 14.37336029 -25.421875 9.83203125 C-26.88104785 8.13809049 -28.39822318 6.55835516 -30 5 C-25.15853891 6.46710942 -21.44051028 9.3512744 -18 13 C-18 13.66 -18 14.32 -18 15 C-16.68 15.33 -15.36 15.66 -14 16 C-13.443125 15.0925 -12.88625 14.185 -12.3125 13.25 C-10.07112022 10.09995275 -8.01550264 8.35356304 -5 6 C-3.24274536 4.06029816 -1.63082688 2.05018236 0 0 Z " fill="#F4F4F4" transform="translate(134,218)"/>
<path d="M0 0 C6.12737291 2.54700774 10.92889602 7.89772824 15 13 C16.1530125 16.35334468 16.17660699 18.40899123 16 22 C15.01 22.33 14.02 22.66 13 23 C12.5968457 22.58637207 12.19369141 22.17274414 11.77832031 21.74658203 C9.94086325 19.86743654 8.0955569 17.99618964 6.25 16.125 C5.61578125 15.47402344 4.9815625 14.82304687 4.328125 14.15234375 C3.4 13.21455078 3.4 13.21455078 2.453125 12.2578125 C1.88754883 11.6817627 1.32197266 11.10571289 0.73925781 10.51220703 C-1.07257096 8.93690279 -2.81524016 7.97518974 -5 7 C-4.38125 6.71125 -3.7625 6.4225 -3.125 6.125 C-0.86674235 5.06279958 -0.86674235 5.06279958 1 3 C0.67 2.01 0.34 1.02 0 0 Z " fill="#1A1819" transform="translate(81,2)"/>
<path d="M0 0 C4.51167767 1.37856818 6.17153266 3.31442134 9 7 C10.93746507 8.76046209 12.94937207 10.36881869 15 12 C13.33333333 12 11.66666667 12 10 12 C10.66 13.65 11.32 15.3 12 17 C11.54109375 16.57847656 11.0821875 16.15695313 10.609375 15.72265625 C9.99578125 15.17480469 9.3821875 14.62695312 8.75 14.0625 C8.14671875 13.51722656 7.5434375 12.97195313 6.921875 12.41015625 C4.79423829 10.84902444 3.6270164 10.22882894 1 10 C-1.08874193 11.44424145 -1.08874193 11.44424145 -3.00390625 13.62109375 C-3.74447266 14.39130859 -4.48503906 15.16152344 -5.24804688 15.95507812 C-6.01181641 16.77427734 -6.77558594 17.59347656 -7.5625 18.4375 C-9.07773936 20.04688522 -10.59957375 21.65009462 -12.12890625 23.24609375 C-12.79994385 23.96466553 -13.47098145 24.6832373 -14.16235352 25.42358398 C-16 27 -16 27 -19 27 C-19 26.34 -19 25.68 -19 25 C-17.66827314 24.15890935 -16.33567941 23.31917463 -15 22.484375 C-10.55640854 19.18639696 -6.83522782 14.97165885 -3 11 C-3.66 11 -4.32 11 -5 11 C-5 10.34 -5 9.68 -5 9 C-5.66 9 -6.32 9 -7 9 C-5.44499019 5.18315774 -2.96404505 2.80804268 0 0 Z " fill="#201E1F" transform="translate(160,2)"/>
<path d="M0 0 C0.99 0.33 1.98 0.66 3 1 C1.515 2.485 1.515 2.485 0 4 C0.639375 3.814375 1.27875 3.62875 1.9375 3.4375 C2.618125 3.293125 3.29875 3.14875 4 3 C4.33 3.33 4.66 3.66 5 4 C6.68608966 4.07205511 8.37500659 4.08386068 10.0625 4.0625 C10.98160156 4.05347656 11.90070313 4.04445313 12.84765625 4.03515625 C13.55792969 4.02355469 14.26820313 4.01195313 15 4 C15 4.33 15 4.66 15 5 C14.40832031 5.02578125 13.81664062 5.0515625 13.20703125 5.078125 C9.43158727 5.34911935 6.53786159 5.73106921 3.125 7.4375 C0.01739703 11.18490358 -0.90100018 15.31808206 -2 20 C-2.66 19.34 -3.32 18.68 -4 18 C-4.66 18.33 -5.32 18.66 -6 19 C-6.33 18.67 -6.66 18.34 -7 18 C-7.66 18.66 -8.32 19.32 -9 20 C-9.64548703 13.8033245 -8.99239298 9.79855617 -5.3671875 4.66796875 C-3.73634277 2.67833818 -2.31689808 1.15844904 0 0 Z " fill="#262425" transform="translate(148,119)"/>
<path d="M0 0 C4.21811132 0.6931447 6.22540724 3.24783845 9.09375 6.26953125 C9.91842773 7.0903418 9.91842773 7.0903418 10.75976562 7.92773438 C14.78125 12.04913141 14.78125 12.04913141 14.78125 15.45703125 C15.11125 16.11703125 15.44125 16.77703125 15.78125 17.45703125 C13.61250748 16.95099133 11.78157373 16.45719312 9.78125 15.45703125 C9.45125 16.11703125 9.12125 16.77703125 8.78125 17.45703125 C6.28125 15.14453125 6.28125 15.14453125 3.78125 12.45703125 C3.78125 11.46703125 3.78125 10.47703125 3.78125 9.45703125 C2.79125 9.45703125 1.80125 9.45703125 0.78125 9.45703125 C0.78125 8.79703125 0.78125 8.13703125 0.78125 7.45703125 C-0.20875 7.45703125 -1.19875 7.45703125 -2.21875 7.45703125 C-2.21875 6.79703125 -2.21875 6.13703125 -2.21875 5.45703125 C-3.20875 4.79703125 -4.19875 4.13703125 -5.21875 3.45703125 C-3.57571116 1.38161377 -2.62437288 0.54058385 0 0 Z " fill="#232021" transform="translate(183.21875,220.54296875)"/>
<path d="M0 0 C4.54805635 -0.17835515 7.8794254 0.00214565 12 2 C12 2.99 12 3.98 12 5 C9.46815512 7.35723489 8.52809907 8 5 8 C4.34 9.32 3.68 10.64 3 12 C0.36 11.67 -2.28 11.34 -5 11 C-5.33 12.65 -5.66 14.3 -6 16 C-6.33 16 -6.66 16 -7 16 C-7 14.35 -7 12.7 -7 11 C-7.66 10.67 -8.32 10.34 -9 10 C-6.66785852 8.79371992 -4.50357861 7.8345262 -2 7 C-0.55303465 3.60918679 -0.55303465 3.60918679 0 0 Z " fill="#F6F5F6" transform="translate(145,154)"/>
<path d="M0 0 C0.44933921 8.83700441 0.44933921 8.83700441 -3 13 C-7.24996508 16.52139964 -10.71872247 16.26853954 -16 16 C-14.87994369 12.63983107 -13.62788203 11.30935087 -11 9 C-10.34 9 -9.68 9 -9 9 C-9 8.34 -9 7.68 -9 7 C-8.34 7 -7.68 7 -7 7 C-6.67 6.01 -6.34 5.02 -6 4 C-1.42857143 0 -1.42857143 0 0 0 Z " fill="#F2F1F1" transform="translate(170,163)"/>
<path d="M0 0 C2.0625 0.9375 2.0625 0.9375 3.8125 3.5 C5.34989539 7.72783732 5.43525212 10.46447451 5.0625 14.9375 C4.4025 15.5975 3.7425 16.2575 3.0625 16.9375 C-1.49305556 16.38194444 -1.49305556 16.38194444 -2.9375 14.9375 C-2.98430639 13.52160678 -2.97501443 12.10366987 -2.9375 10.6875 C-2.89414019 7.28917528 -3.08287027 4.24919021 -3.9375 0.9375 C-1.9375 -0.0625 -1.9375 -0.0625 0 0 Z " fill="#242223" transform="translate(172.9375,123.0625)"/>
<path d="M0 0 C0.99 0.66 1.98 1.32 3 2 C5.11280345 2.63292383 5.11280345 2.63292383 7 3 C6.01 4.485 6.01 4.485 5 6 C4.731875 6.66 4.46375 7.32 4.1875 8 C2.55144776 10.75545641 0.91281688 11.71294138 -2 13 C-6.4 12.6 -6.4 12.6 -8 11 C-8.99 12.485 -8.99 12.485 -10 14 C-10.99 13.67 -11.98 13.34 -13 13 C-8.71 8.71 -4.42 4.42 0 0 Z " fill="#232021" transform="translate(136,224)"/>
<path d="M0 0 C0.66 0.33 1.32 0.66 2 1 C0.92664113 5.44677247 0.12796049 8.1853971 -3.4375 11.1875 C-4.05496094 11.71730469 -4.67242187 12.24710938 -5.30859375 12.79296875 C-7 14 -7 14 -9 14 C-9.33 14.99 -9.66 15.98 -10 17 C-10.99 16.67 -11.98 16.34 -13 16 C-12.36191406 15.39671875 -11.72382813 14.7934375 -11.06640625 14.171875 C-10.24011719 13.37265625 -9.41382813 12.5734375 -8.5625 11.75 C-7.73878906 10.96109375 -6.91507813 10.1721875 -6.06640625 9.359375 C-4.03088949 7.0352689 -3.50819072 5.94750616 -3 3 C-1.4375 1.25 -1.4375 1.25 0 0 Z M-14 17 C-13.67 17.99 -13.34 18.98 -13 20 C-15.45023758 22.50804718 -17.91147598 25.0050076 -20.375 27.5 C-21.42300781 28.57314453 -21.42300781 28.57314453 -22.4921875 29.66796875 C-23.1625 30.34472656 -23.8328125 31.02148438 -24.5234375 31.71875 C-25.14138184 32.34716797 -25.75932617 32.97558594 -26.39599609 33.62304688 C-28 35 -28 35 -30 35 C-30.33 35.99 -30.66 36.98 -31 38 C-31.33 37.01 -31.66 36.02 -32 35 C-26.06 29.06 -20.12 23.12 -14 17 Z " fill="#F2F2F2" transform="translate(190,24)"/>
<path d="M0 0 C0.66 0.33 1.32 0.66 2 1 C0.02 3.31 -1.96 5.62 -4 8 C-3.67 7.67 -3.34 7.34 -3 7 C-2.01 8.485 -2.01 8.485 -1 10 C-3.97 12.97 -6.94 15.94 -10 19 C-10.99 18.67 -11.98 18.34 -13 18 C-13.33 18.66 -13.66 19.32 -14 20 C-14 19.34 -14 18.68 -14 18 C-15.98 18.99 -15.98 18.99 -18 20 C-18.33 19.34 -18.66 18.68 -19 18 C-18.55269531 17.62488281 -18.10539062 17.24976563 -17.64453125 16.86328125 C-13.9275104 13.71689047 -10.40373721 10.48883064 -7 7 C-5.73049808 5.72783665 -4.45960735 4.45705804 -3.1875 3.1875 C-2.58292969 2.58292969 -1.97835937 1.97835937 -1.35546875 1.35546875 C-0.68451172 0.68451172 -0.68451172 0.68451172 0 0 Z " fill="#F3F3F3" transform="translate(95,216)"/>
<path d="M0 0 C1.2684375 0.2475 1.2684375 0.2475 2.5625 0.5 C-1.79457621 5.77435541 -6.46759718 10.58468379 -11.36328125 15.36328125 C-13.47512292 17.3234843 -13.47512292 17.3234843 -14.4375 19.5 C-15.4275 19.17 -16.4175 18.84 -17.4375 18.5 C-17.3125 16.3125 -17.3125 16.3125 -16.4375 13.5 C-15.05393591 12.28114592 -13.65732444 11.07167518 -12.1796875 9.96875 C-10.12453297 8.23615336 -8.60523733 6.29255512 -6.9375 4.1875 C-3.88611359 0.56525289 -3.88611359 0.56525289 0 0 Z " fill="#F4F3F3" transform="translate(74.4375,-0.5)"/>
<path d="M0 0 C1.32 0.66 2.64 1.32 4 2 C4.33 1.34 4.66 0.68 5 0 C5.02701408 2.10409639 5.04640223 4.20829178 5.0625 6.3125 C5.07410156 7.48425781 5.08570313 8.65601563 5.09765625 9.86328125 C5 13 5 13 4 16 C-0.875 15.125 -0.875 15.125 -2 14 C-2.07226502 12.14712498 -2.0838122 10.29166122 -2.0625 8.4375 C-2.05347656 7.42558594 -2.04445312 6.41367188 -2.03515625 5.37109375 C-2.02355469 4.58863281 -2.01195312 3.80617187 -2 3 C-2.66 2.67 -3.32 2.34 -4 2 C-2.68 2 -1.36 2 0 2 C0 1.34 0 0.68 0 0 Z " fill="#201D1E" transform="translate(156,184)"/>
<path d="M0 0 C0.66 0.33 1.32 0.66 2 1 C1.34 1.99 0.68 2.98 0 4 C-0.66 4 -1.32 4 -2 4 C-2 4.66 -2 5.32 -2 6 C-2.66 6 -3.32 6 -4 6 C-4.268125 6.639375 -4.53625 7.27875 -4.8125 7.9375 C-6 10 -6 10 -9 11 C-9 11.66 -9 12.32 -9 13 C-9.66 13 -10.32 13 -11 13 C-11.226875 13.556875 -11.45375 14.11375 -11.6875 14.6875 C-14.06279342 18.87254078 -17.71275148 21.77571415 -21.375 24.8125 C-24.80713982 27.69639867 -27.65568986 30.92273953 -30.51953125 34.36328125 C-32 36 -32 36 -34 37 C-32.51965974 31.53377463 -28.72773989 28.34669022 -24.8046875 24.51171875 C-24.09724396 23.80852005 -23.38980042 23.10532135 -22.66091919 22.3808136 C-20.40590442 20.14255438 -18.14066973 17.91496808 -15.875 15.6875 C-14.34176171 14.16931249 -12.80920142 12.65043992 -11.27734375 11.13085938 C-7.52605238 7.41259586 -3.76632178 3.70303471 0 0 Z " fill="#F3F3F3" transform="translate(88,25)"/>
<path d="M0 0 C1.94458008 1.37695312 1.94458008 1.37695312 3.76953125 3.28125 C4.43017578 3.95800781 5.09082031 4.63476562 5.77148438 5.33203125 C6.44501953 6.04746094 7.11855469 6.76289062 7.8125 7.5 C8.50537109 8.21542969 9.19824219 8.93085938 9.91210938 9.66796875 C11.61985699 11.43460421 13.31486688 13.21182487 15 15 C14.67 15.99 14.34 16.98 14 18 C13.34 18 12.68 18 12 18 C12 17.01 12 16.02 12 15 C11.41347656 14.73058594 10.82695312 14.46117187 10.22265625 14.18359375 C8.00290721 13.00154813 6.32160632 11.71899616 4.4375 10.0625 C3.85871094 9.55847656 3.27992188 9.05445313 2.68359375 8.53515625 C1 7 1 7 -0.52734375 5.37109375 C-2.06759837 3.74690878 -2.06759837 3.74690878 -5 3 C-6.98 4.98 -8.96 6.96 -11 9 C-11.66 8.67 -12.32 8.34 -13 8 C-11.78719339 6.65176834 -10.55401909 5.32183918 -9.3125 4 C-8.62800781 3.2575 -7.94351563 2.515 -7.23828125 1.75 C-4.49203939 -0.39714896 -3.41209707 -0.41335412 0 0 Z " fill="#302F2F" transform="translate(165,0)"/>
<path d="M0 0 C0 3.60004038 -1.01602581 4.37374908 -3.45541382 6.84660339 C-3.95223663 7.33421646 -4.44905945 7.82182953 -4.9609375 8.32421875 C-5.46670319 8.83048294 -5.97246887 9.33674713 -6.49356079 9.85835266 C-7.56438481 10.92683593 -8.63890408 11.99162669 -9.71679688 13.05297852 C-11.37028944 14.68285671 -13.01004147 16.32566495 -14.6484375 17.97070312 C-15.68931381 19.00600356 -16.73095511 20.04053556 -17.7734375 21.07421875 C-18.51259903 21.81474739 -18.51259903 21.81474739 -19.26669312 22.57023621 C-22.76897903 26 -22.76897903 26 -25 26 C-25.66 27.32 -26.32 28.64 -27 30 C-29.19726562 28.14453125 -29.19726562 28.14453125 -31.39453125 26.2890625 C-32.8655046 25.10798901 -34.43037794 24.04641471 -36 23 C-33.75 22.25 -33.75 22.25 -31 22 C-28.828125 23.984375 -28.828125 23.984375 -27 26 C-26.5153125 25.50371094 -26.030625 25.00742188 -25.53125 24.49609375 C-22.18045013 21.10018696 -18.81821567 17.78450799 -15.1875 14.6875 C-9.83432003 10.09295432 -4.9436998 5.02548895 0 0 Z " fill="#F3F3F3" transform="translate(177,197)"/>
<path d="M0 0 C0.66 0.33 1.32 0.66 2 1 C-3.18416977 7.1396403 -8.70914169 12.89542955 -14.39038086 18.57568359 C-15.83281856 20.02034996 -17.26701565 21.47289854 -18.70117188 22.92578125 C-19.61060547 23.83714844 -20.52003906 24.74851562 -21.45703125 25.6875 C-22.28178955 26.51636719 -23.10654785 27.34523438 -23.95629883 28.19921875 C-26 30 -26 30 -28 30 C-26.36221955 25.80374091 -23.26676818 23.01323215 -20.1171875 19.921875 C-19.54292023 19.35043762 -18.96865295 18.77900024 -18.37698364 18.19024658 C-16.5476419 16.37207055 -14.71145807 14.56098508 -12.875 12.75 C-11.63105226 11.51608671 -10.3875573 10.28171678 -9.14453125 9.046875 C-6.10157633 6.02593257 -3.05246746 3.01132908 0 0 Z " fill="#F3F3F3" transform="translate(238,31)"/>
<path d="M0 0 C0.99 0.33 1.98 0.66 3 1 C3 1.66 3 2.32 3 3 C3.86625 3.3403125 3.86625 3.3403125 4.75 3.6875 C7.5663661 5.33038023 9.08077114 7.39533227 11 10 C10.34 10 9.68 10 9 10 C8.67 10.66 8.34 11.32 8 12 C7.67 11.34 7.34 10.68 7 10 C6.34 10.66 5.68 11.32 5 12 C2.11562221 10.70700306 0.12780579 9.34058637 -2 7 C-1.34 4.69 -0.68 2.38 0 0 Z " fill="#272626" transform="translate(46,8)"/>
<path d="M0 0 C0.58048096 0.23227295 1.16096191 0.4645459 1.7590332 0.70385742 C1.2846582 1.13698242 0.8102832 1.57010742 0.3215332 2.01635742 C-1.47783637 3.72695355 -1.47783637 3.72695355 -2.2409668 6.70385742 C-3.2309668 6.70385742 -4.2209668 6.70385742 -5.2409668 6.70385742 C-5.3956543 7.66291992 -5.3956543 7.66291992 -5.5534668 8.64135742 C-5.7803418 9.32198242 -6.0072168 10.00260742 -6.2409668 10.70385742 C-7.2309668 11.03385742 -8.2209668 11.36385742 -9.2409668 11.70385742 C-9.7153418 12.19885742 -10.1897168 12.69385742 -10.6784668 13.20385742 C-12.49290399 14.94571713 -13.79655757 15.28240755 -16.2409668 15.70385742 C-15.9109668 16.69385742 -15.5809668 17.68385742 -15.2409668 18.70385742 C-16.5609668 19.03385742 -17.8809668 19.36385742 -19.2409668 19.70385742 C-18.35290058 14.21586781 -14.21483225 11.16447225 -10.4284668 7.39135742 C-9.70336914 6.63790039 -8.97827148 5.88444336 -8.23120117 5.1081543 C-7.52672852 4.40110352 -6.82225586 3.69405273 -6.09643555 2.96557617 C-5.45343506 2.31548584 -4.81043457 1.66539551 -4.14794922 0.99560547 C-2.2409668 -0.29614258 -2.2409668 -0.29614258 0 0 Z " fill="#ECEBEC" transform="translate(80.240966796875,11.296142578125)"/>
<path d="M0 0 C1.17539996 0.92652701 2.34010577 1.86663387 3.5 2.8125 C4.1496875 3.33457031 4.799375 3.85664063 5.46875 4.39453125 C7 6 7 6 7 9 C4.5 11.1875 4.5 11.1875 2 13 C0.84481082 12.09515208 -0.29885406 11.1755794 -1.4375 10.25 C-2.07558594 9.73953125 -2.71367188 9.2290625 -3.37109375 8.703125 C-5.18810554 6.80332371 -5.60423197 5.56413092 -6 3 C-5.401875 3.33 -4.80375 3.66 -4.1875 4 C-1.94613529 5.20787988 -1.94613529 5.20787988 1 5 C0.67 3.35 0.34 1.7 0 0 Z " fill="#232122" transform="translate(70,231)"/>
<path d="M0 0 C7.02318537 1.30058988 11.27405256 6.02890255 16 11 C15.01 11 14.02 11 13 11 C12.34 10.34 11.68 9.68 11 9 C8.11785113 9.88214887 8.11785113 9.88214887 6 11 C6 10.01 6 9.02 6 8 C5.34 8 4.68 8 4 8 C4 7.34 4 6.68 4 6 C2.35 6 0.7 6 -1 6 C-0.67 4.02 -0.34 2.04 0 0 Z " fill="#211D1E" transform="translate(146,228)"/>
<path d="M0 0 C0.66 0.99 1.32 1.98 2 3 C1.47535156 3.45246094 0.95070312 3.90492187 0.41015625 4.37109375 C-8.4563956 12.17542974 -16.69844016 20.60446569 -25 29 C-25.99 28.67 -26.98 28.34 -28 28 C-24.13806545 24.04562553 -20.26110078 20.16130067 -16.0625 16.5625 C-10.23751121 11.5433397 -4.48804197 6.27193247 0 0 Z " fill="#F2F2F2" transform="translate(147,28)"/>
<path d="M0 0 C0.33 0.66 0.66 1.32 1 2 C-4.16923077 6.92307692 -4.16923077 6.92307692 -8.375 7.3125 C-9.674375 7.1578125 -9.674375 7.1578125 -11 7 C-11.33 6.01 -11.66 5.02 -12 4 C-12.66 3.67 -13.32 3.34 -14 3 C-9.43672206 -0.53286034 -5.50366792 -0.32374517 0 0 Z " fill="#1D1A1B" transform="translate(163,148)"/>
<path d="M0 0 C0.99 0.33 1.98 0.66 3 1 C4.72795352 1.06802967 6.45835365 1.08495645 8.1875 1.0625 C9.08855469 1.05347656 9.98960937 1.04445313 10.91796875 1.03515625 C11.94857422 1.01775391 11.94857422 1.01775391 13 1 C13 1.33 13 1.66 13 2 C12.40832031 2.02578125 11.81664062 2.0515625 11.20703125 2.078125 C7.43158727 2.34911935 4.53786159 2.73106921 1.125 4.4375 C-1.98260297 8.18490358 -2.90100018 12.31808206 -4 17 C-4.66 16.34 -5.32 15.68 -6 15 C-6.99 15.495 -6.99 15.495 -8 16 C-8.33 15.67 -8.66 15.34 -9 15 C-9.66 15.66 -10.32 16.32 -11 17 C-11 15.02 -11 13.04 -11 11 C-10.030625 10.731875 -9.06125 10.46375 -8.0625 10.1875 C-7.051875 9.795625 -6.04125 9.40375 -5 9 C-4.67 8.01 -4.34 7.02 -4 6 C-3.01 5.34 -2.02 4.68 -1 4 C-1 3.01 -1 2.02 -1 1 C-0.67 0.67 -0.34 0.34 0 0 Z " fill="#100E0F" transform="translate(150,122)"/>
<path d="M0 0 C2.85685667 1.17204376 3.84383553 2.3998106 5.4375 5 C4.4784375 5.2165625 4.4784375 5.2165625 3.5 5.4375 C1.46204854 5.81007181 1.46204854 5.81007181 0.4375 7 C0.4375 7.99 0.4375 8.98 0.4375 10 C-0.8825 10.33 -2.2025 10.66 -3.5625 11 C-3.5625 9.68 -3.5625 8.36 -3.5625 7 C-4.8825 7.33 -6.2025 7.66 -7.5625 8 C-7.17344382 5.27660672 -6.49512433 3.91096786 -4.8125 1.6875 C-2.5625 0 -2.5625 0 0 0 Z " fill="#1F1C1D" transform="translate(121.5625,0)"/>
<path d="M0 0 C0.33 0.99 0.66 1.98 1 3 C-1.80530847 5.8546576 -4.61707696 8.70277231 -7.43505859 11.54492188 C-8.39324956 12.51318538 -9.34963982 13.48323426 -10.30419922 14.45507812 C-11.6746382 15.8497097 -13.05206367 17.23746521 -14.4296875 18.625 C-15.25710449 19.46289062 -16.08452148 20.30078125 -16.93701172 21.1640625 C-19 23 -19 23 -21 23 C-19.48623919 19.43235715 -17.39486871 17.16293713 -14.6484375 14.453125 C-13.79765625 13.60878906 -12.946875 12.76445312 -12.0703125 11.89453125 C-11.18085938 11.02183594 -10.29140625 10.14914063 -9.375 9.25 C-8.4778125 8.36183594 -7.580625 7.47367188 -6.65625 6.55859375 C-4.44192996 4.36783031 -2.22307565 2.18187237 0 0 Z " fill="#F3F3F3" transform="translate(31,186)"/>
<path d="M0 0 C3.16115776 1.36983503 3.9927092 1.9890638 6 5 C5.01 5 4.02 5 3 5 C0.98848259 5.63106429 -1.01363702 6.29373761 -3 7 C-3.66 6.34 -4.32 5.68 -5 5 C-3.35 3.35 -1.7 1.7 0 0 Z M-7 6 C-6.34 6.33 -5.68 6.66 -5 7 C-5.99 7.66 -6.98 8.32 -8 9 C-7.67 8.01 -7.34 7.02 -7 6 Z M-9 9 C-6.875 9.9375 -6.875 9.9375 -5 11 C-6.65 12.65 -8.3 14.3 -10 16 C-10.66 15.34 -11.32 14.68 -12 14 C-11.34 14 -10.68 14 -10 14 C-10.33 12.68 -10.66 11.36 -11 10 C-10.34 9.67 -9.68 9.34 -9 9 Z " fill="#F4F4F4" transform="translate(120,11)"/>
<path d="M0 0 C0.99 0.33 1.98 0.66 3 1 C0.04974274 4.00803572 -2.91149669 7.0050179 -5.875 10 C-6.71675781 10.85851563 -7.55851562 11.71703125 -8.42578125 12.6015625 C-9.23144531 13.41367188 -10.03710938 14.22578125 -10.8671875 15.0625 C-11.61081543 15.81660156 -12.35444336 16.57070313 -13.12060547 17.34765625 C-15 19 -15 19 -17 19 C-17.33 18.01 -17.66 17.02 -18 16 C-17.443125 15.79375 -16.88625 15.5875 -16.3125 15.375 C-13.7147472 13.83039023 -12.15649429 11.93454803 -10.2890625 9.5859375 C-7.35791053 5.97973234 -4.00364046 2.40218428 0 0 Z " fill="#E4E3E3" transform="translate(116,0)"/>
<path d="M0 0 C3.16115776 1.36983503 3.9927092 1.9890638 6 5 C5.34 5.66 4.68 6.32 4 7 C4.33 7.66 4.66 8.32 5 9 C4.01 9.495 4.01 9.495 3 10 C3.99 10.99 4.98 11.98 6 13 C5.67 13.66 5.34 14.32 5 15 C4.31292969 14.278125 3.62585938 13.55625 2.91796875 12.8125 C2.01691406 11.884375 1.11585937 10.95625 0.1875 10 C-0.70582031 9.071875 -1.59914063 8.14375 -2.51953125 7.1875 C-4.82379728 4.66928685 -4.82379728 4.66928685 -8 5 C-8 4.34 -8 3.68 -8 3 C-7.2575 3.20625 -6.515 3.4125 -5.75 3.625 C-2.67669159 4.04408751 -1.57213134 3.61949011 1 2 C0.67 1.34 0.34 0.68 0 0 Z " fill="#181516" transform="translate(106,227)"/>
<path d="M0 0 C0.66 0.33 1.32 0.66 2 1 C0.34136495 5.32504836 -2.871041 8.09418825 -6.125 11.25 C-6.68832031 11.80429688 -7.25164062 12.35859375 -7.83203125 12.9296875 C-9.21686028 14.29104485 -10.60783204 15.64614859 -12 17 C-12.66 16.01 -13.32 15.02 -14 14 C-12.33333333 12.33333333 -10.66666667 10.66666667 -9 9 C-8.113125 8.0925 -7.22625 7.185 -6.3125 6.25 C-4 4 -4 4 -2 3 C-1.34 2.01 -0.68 1.02 0 0 Z " fill="#FBFAFB" transform="translate(135,221)"/>
<path d="M0 0 C4.84146109 1.46710942 8.55948972 4.3512744 12 8 C12 8.66 12 9.32 12 10 C15.04913228 11.01111093 15.04913228 11.01111093 18 10 C18.33 11.98 18.66 13.96 19 16 C18.01 16.33 17.02 16.66 16 17 C14.08014172 15.10730953 12.16408963 13.21100983 10.25 11.3125 C9.71117188 10.78205078 9.17234375 10.25160156 8.6171875 9.70507812 C5.51387173 6.62068501 2.66327598 3.48423727 0 0 Z " fill="#E0DFE0" transform="translate(104,223)"/>
<path d="M0 0 C2.0625 1.6875 2.0625 1.6875 4 4 C3.86776995 8.89251184 1.36143445 11.06192932 -2.0625 14.3125 C-2.98160156 15.19550781 -3.90070312 16.07851562 -4.84765625 16.98828125 C-5.91306641 17.98408203 -5.91306641 17.98408203 -7 19 C-7 16 -7 16 -5.4375 14.125 C-3.69325956 12.04278367 -3.69325956 12.04278367 -4.3125 9.25 C-4.539375 8.5075 -4.76625 7.765 -5 7 C-4.01 7.33 -3.02 7.66 -2 8 C-0.89163577 6.11683841 -0.89163577 6.11683841 0 4 C-0.33 3.34 -0.66 2.68 -1 2 C-0.67 1.34 -0.34 0.68 0 0 Z " fill="#181617" transform="translate(47,231)"/>
<path d="M0 0 C1.98 0.495 1.98 0.495 4 1 C4.29915966 9.97478992 4.29915966 9.97478992 2 13 C1.01 13.33 0.02 13.66 -1 14 C-1.02694851 12.04174127 -1.04637218 10.08337774 -1.0625 8.125 C-1.07410156 7.03445312 -1.08570313 5.94390625 -1.09765625 4.8203125 C-1 2 -1 2 0 0 Z " fill="#221F20" transform="translate(157,106)"/>
<path d="M0 0 C3.69268021 0.5606405 4.97279953 2.20304577 7.48828125 4.90625 C8.27847656 5.7415625 9.06867188 6.576875 9.8828125 7.4375 C10.47449219 8.0871875 11.06617187 8.736875 11.67578125 9.40625 C10.68578125 10.89125 10.68578125 10.89125 9.67578125 12.40625 C9.67578125 11.74625 9.67578125 11.08625 9.67578125 10.40625 C8.35578125 9.74625 7.03578125 9.08625 5.67578125 8.40625 C5.67578125 7.74625 5.67578125 7.08625 5.67578125 6.40625 C5.01578125 6.40625 4.35578125 6.40625 3.67578125 6.40625 C3.01578125 5.74625 2.35578125 5.08625 1.67578125 4.40625 C-0.92702443 4.72666397 -0.92702443 4.72666397 -3.32421875 5.40625 C-3.65421875 4.41625 -3.98421875 3.42625 -4.32421875 2.40625 C-2.32421875 0.40625 -2.32421875 0.40625 0 0 Z " fill="#2C2A2B" transform="translate(58.32421875,220.59375)"/>
<path d="M0 0 C4.41244381 1.00282814 6.82383858 4.31936519 9.75 7.625 C9.09 8.285 8.43 8.945 7.75 9.625 C6.43 8.305 5.11 6.985 3.75 5.625 C1.77 6.285 -0.21 6.945 -2.25 7.625 C-2.25 6.965 -2.25 6.305 -2.25 5.625 C-3.24 4.965 -4.23 4.305 -5.25 3.625 C-3.61646404 1.56158615 -2.5583885 0.71066347 0 0 Z " fill="#2A2828" transform="translate(183.25,220.375)"/>
<path d="M0 0 C0.66 0 1.32 0 2 0 C0.4608199 3.66752005 -1.75485452 5.98580573 -4.5703125 8.765625 C-5.46621094 9.65507813 -6.36210937 10.54453125 -7.28515625 11.4609375 C-8.22230469 12.38132812 -9.15945312 13.30171875 -10.125 14.25 C-11.07988637 15.19484856 -12.03431859 16.14015633 -12.98828125 17.0859375 C-15.32109087 19.39518338 -17.65844086 21.69963203 -20 24 C-20.66 23.34 -21.32 22.68 -22 22 C-17.375 17.125 -17.375 17.125 -14 16 C-13.67 15.01 -13.34 14.02 -13 13 C-11.328125 11.38671875 -11.328125 11.38671875 -9.25 9.6875 C-6.60274661 7.4577346 -4.27343584 5.27699079 -2.125 2.5625 C-1.42375 1.716875 -0.7225 0.87125 0 0 Z " fill="#F2F2F2" transform="translate(179,48)"/>
<path d="M0 0 C0.99 0.33 1.98 0.66 3 1 C2.4946875 1.37511719 1.989375 1.75023437 1.46875 2.13671875 C-0.48710837 3.67734528 -2.30443667 5.17467417 -4 7 C-4 7.845625 -4 8.69125 -4 9.5625 C-4 10.366875 -4 11.17125 -4 12 C-6.13763954 13.984951 -8.5031734 15.50317793 -11 17 C-11.66 16.67 -12.32 16.34 -13 16 C-10.06866617 9.65109213 -4.96577087 4.81971879 0 0 Z " fill="#E6E5E6" transform="translate(161,11)"/>
<path d="M0 0 C2.0625 1.6875 2.0625 1.6875 4 4 C3.75 6.75 3.75 6.75 3 9 C2.01 9.33 1.02 9.66 0 10 C-2.04296875 8.56640625 -2.04296875 8.56640625 -4.1875 6.5625 C-4.90292969 5.90378906 -5.61835937 5.24507812 -6.35546875 4.56640625 C-6.89816406 4.04949219 -7.44085938 3.53257813 -8 3 C-7.34 2.34 -6.68 1.68 -6 1 C-4.66666667 1.33333333 -3.33333333 1.66666667 -2 2 C-1.34 1.34 -0.68 0.68 0 0 Z " fill="#2A2828" transform="translate(128,8)"/>
<path d="M0 0 C3.24838923 1.08279641 4.04282583 1.89036845 6.1875 4.4375 C6.71730469 5.05496094 7.24710938 5.67242187 7.79296875 6.30859375 C9 8 9 8 9 10 C8.01 10.495 8.01 10.495 7 11 C6.67 11.66 6.34 12.32 6 13 C3.35247996 10.42215154 1.05567935 8.08351902 -1 5 C-0.01 5 0.98 5 2 5 C1.01 4.34 0.02 3.68 -1 3 C-0.67 2.01 -0.34 1.02 0 0 Z " fill="#232122" transform="translate(109,231)"/>
<path d="M0 0 C0.66 0.33 1.32 0.66 2 1 C1.04882866 2.1725131 0.08882991 3.33787015 -0.875 4.5 C-1.67550781 5.47453125 -1.67550781 5.47453125 -2.4921875 6.46875 C-2.98976563 6.9740625 -3.48734375 7.479375 -4 8 C-4.66 8 -5.32 8 -6 8 C-6.2578125 8.58265625 -6.515625 9.1653125 -6.78125 9.765625 C-8.09834017 12.1802903 -9.55088384 13.81740177 -11.5 15.75 C-12.41265625 16.67039063 -12.41265625 16.67039063 -13.34375 17.609375 C-15 19 -15 19 -17 19 C-15.60652624 15.84795019 -13.97514921 13.73828227 -11.5234375 11.328125 C-10.51796875 10.33232422 -10.51796875 10.33232422 -9.4921875 9.31640625 C-8.79351562 8.63449219 -8.09484375 7.95257813 -7.375 7.25 C-6.66859375 6.55261719 -5.9621875 5.85523438 -5.234375 5.13671875 C-3.49401297 3.41987512 -1.74915019 1.70788168 0 0 Z " fill="#F3F3F3" transform="translate(65,152)"/>
<path d="M0 0 C1.32 0.66 2.64 1.32 4 2 C4 2.99 4 3.98 4 5 C2.68 4.67 1.36 4.34 0 4 C-0.20625 4.556875 -0.4125 5.11375 -0.625 5.6875 C-3.45479808 10.44670586 -7.79971748 13.31755566 -13 15 C-8.70214922 9.96836982 -4.36574458 4.97281557 0 0 Z " fill="#E5E4E4" transform="translate(99,231)"/>
<path d="M0 0 C0.33 0.66 0.66 1.32 1 2 C-4.05352742 7.96348734 -9.41711741 13.53105379 -15 19 C-15 14.55928248 -12.10714428 12.53750766 -9.1875 9.5 C-8.64029297 8.91863281 -8.09308594 8.33726563 -7.52929688 7.73828125 C-5.05733908 5.11950415 -2.55331817 2.53959828 0 0 Z " fill="#F3F3F3" transform="translate(24,47)"/>
<path d="M0 0 C0.66 0.33 1.32 0.66 2 1 C0.35 2.65 -1.3 4.3 -3 6 C-2.01 7.485 -2.01 7.485 -1 9 C-2.65 10.32 -4.3 11.64 -6 13 C-7.32 11.68 -8.64 10.36 -10 9 C-9.67 8.01 -9.34 7.02 -9 6 C-8.4225 5.87625 -7.845 5.7525 -7.25 5.625 C-3.93089319 4.70302589 -2.29110352 2.48202881 0 0 Z " fill="#F0EFF0" transform="translate(168,227)"/>
<path d="M0 0 C-1.26682552 3.90604537 -2.43283565 5.90166803 -6 8 C-8.25 8.6875 -8.25 8.6875 -10 9 C-9.40377804 2.68004723 -9.40377804 2.68004723 -7.8125 0 C-5.05274248 -1.52262484 -2.96304212 -0.72429919 0 0 Z " fill="#201D1E" transform="translate(103,223)"/>
<path d="M0 0 C2.0625 2.3125 2.0625 2.3125 4 5 C3.67 5.99 3.34 6.98 3 8 C2.34 8 1.68 8 1 8 C1 8.66 1 9.32 1 10 C-0.98 9.34 -2.96 8.68 -5 8 C-4.45773019 4.20411134 -2.79872437 2.52788007 0 0 Z " fill="#282627" transform="translate(147,171)"/>
<path d="M0 0 C3.86463725 0.41406828 6.12722 2.52621722 9 5 C8.67 5.99 8.34 6.98 8 8 C3.97017497 8 0.4635627 5.81049868 -3 4 C-1 1 -1 1 0 0 Z " fill="#1E1B1C" transform="translate(165,150)"/>
<path d="M0 0 C0.66 0.33 1.32 0.66 2 1 C-5.26 8.26 -12.52 15.52 -20 23 C-20.33 22.01 -20.66 21.02 -21 20 C-20.40574219 19.47792969 -19.81148437 18.95585938 -19.19921875 18.41796875 C-12.54757003 12.51113917 -6.23469517 6.34137247 0 0 Z " fill="#F2F2F2" transform="translate(231,49)"/>
<path d="M0 0 C0.99 0.66 1.98 1.32 3 2 C1.35 4.64 -0.3 7.28 -2 10 C-6 8 -6 8 -8 6 C-8 5.01 -8 4.02 -8 3 C-5.03 3.495 -5.03 3.495 -2 4 C-1.34 2.68 -0.68 1.36 0 0 Z " fill="#EFEEEF" transform="translate(145,9)"/>
<path d="M0 0 C1.65 0 3.3 0 5 0 C5 0.66 5 1.32 5 2 C5.66 2 6.32 2 7 2 C7 2.99 7 3.98 7 5 C7.66 5 8.32 5 9 5 C9.33 5.66 9.66 6.32 10 7 C10.99 7.33 11.98 7.66 13 8 C12.67 9.32 12.34 10.64 12 12 C7.47384007 8.32167983 3.60575001 4.58913637 0 0 Z " fill="#2F2C2D" transform="translate(145,234)"/>
<path d="M0 0 C0.99 0.33 1.98 0.66 3 1 C3 1.99 3 2.98 3 4 C2.01 4.33 1.02 4.66 0 5 C1.32 5.66 2.64 6.32 4 7 C3.67 8.32 3.34 9.64 3 11 C2.505 10.690625 2.01 10.38125 1.5 10.0625 C-1.97986781 8.58355618 -5.24028509 8.37597149 -9 8 C-5.25 6 -5.25 6 -3 6 C-2.690625 5.38125 -2.38125 4.7625 -2.0625 4.125 C-1.375 2.75 -0.6875 1.375 0 0 Z " fill="#322E2F" transform="translate(163,148)"/>
<path d="M0 0 C0.66 0.33 1.32 0.66 2 1 C-1.09199031 4.17875647 -4.20051282 7.34082746 -7.3125 10.5 C-8.19357422 11.40621094 -9.07464844 12.31242187 -9.98242188 13.24609375 C-10.82998047 14.10332031 -11.67753906 14.96054687 -12.55078125 15.84375 C-13.33106689 16.63974609 -14.11135254 17.43574219 -14.9152832 18.25585938 C-17 20 -17 20 -20 20 C-20 19.34 -20 18.68 -20 18 C-18.60618834 17.08222863 -17.20940731 16.16871904 -15.79980469 15.27539062 C-12.37121427 12.84579806 -9.54780087 9.75212532 -6.625 6.75 C-5.98433594 6.1003125 -5.34367188 5.450625 -4.68359375 4.78125 C-3.11770636 3.19199115 -1.55671491 1.59823583 0 0 Z " fill="#0E0C0D" transform="translate(161,9)"/>
<path d="M0 0 C0 1.66666667 0 3.33333333 0 5 C0.33 5.99 0.66 6.98 1 8 C0.34 8 -0.32 8 -1 8 C-0.34 9.32 0.32 10.64 1 12 C0.01 12.66 -0.98 13.32 -2 14 C-2 13.01 -2 12.02 -2 11 C-2.99 10.67 -3.98 10.34 -5 10 C-5.87109375 8.140625 -5.87109375 8.140625 -6 6 C-4.78515625 4.296875 -4.78515625 4.296875 -3.0625 2.75 C-2.21365234 1.96882812 -2.21365234 1.96882812 -1.34765625 1.171875 C-0.90292969 0.78515625 -0.45820312 0.3984375 0 0 Z " fill="#282526" transform="translate(53,224)"/>
<path d="M0 0 C0.66 0 1.32 0 2 0 C2.1953125 6.0546875 2.1953125 6.0546875 2 8 C1.34 8.66 0.68 9.32 0 10 C-2.625 9.625 -2.625 9.625 -5 9 C-3.8451389 5.53541669 -2.01986134 3.029792 0 0 Z " fill="#222122" transform="translate(176,130)"/>
<path d="M0 0 C0.66 0.33 1.32 0.66 2 1 C-7.75624462 12.416882 -7.75624462 12.416882 -12 16 C-12.66 16 -13.32 16 -14 16 C-12.34136495 11.67495164 -9.128959 8.90581175 -5.875 5.75 C-5.31167969 5.19570312 -4.74835938 4.64140625 -4.16796875 4.0703125 C-2.78313972 2.70895515 -1.39216796 1.35385141 0 0 Z " fill="#F3F3F3" transform="translate(197,72)"/>
<path d="M0 0 C0 3 0 3 -1.46875 4.80932617 C-2.1390625 5.46392822 -2.809375 6.11853027 -3.5 6.79296875 C-4.221875 7.50517578 -4.94375 8.21738281 -5.6875 8.95117188 C-6.450625 9.68916016 -7.21375 10.42714844 -8 11.1875 C-9.1446875 12.31188477 -9.1446875 12.31188477 -10.3125 13.45898438 C-12.20180839 15.31286823 -14.09775206 17.15941069 -16 19 C-16.66 18.67 -17.32 18.34 -18 18 C-16.625 16 -16.625 16 -15 14 C-14.34 14 -13.68 14 -13 14 C-12.67 13.01 -12.34 12.02 -12 11 C-11.34 11 -10.68 11 -10 11 C-9.75507812 10.41734375 -9.51015625 9.8346875 -9.2578125 9.234375 C-7.79564126 6.63697764 -6.15259586 5.16024169 -3.875 3.25 C-3.15054688 2.63640625 -2.42609375 2.0228125 -1.6796875 1.390625 C-1.12539062 0.93171875 -0.57109375 0.4728125 0 0 Z " fill="#F3F3F3" transform="translate(87,37)"/>
<path d="M0 0 C0.66 0.99 1.32 1.98 2 3 C2.99 3.66 3.98 4.32 5 5 C2.36 5.99 -0.28 6.98 -3 8 C-3.33 7.67 -3.66 7.34 -4 7 C-4.99 7 -5.98 7 -7 7 C-3.86206897 0 -3.86206897 0 0 0 Z " fill="#1D1A1B" transform="translate(109,12)"/>
<path d="M0 0 C0.99 0.33 1.98 0.66 3 1 C2.835 1.5775 2.67 2.155 2.5 2.75 C1.85537969 5.26664369 1.85537969 5.26664369 2 9 C1.67 9.66 1.34 10.32 1 11 C-0.32 10.67 -1.64 10.34 -3 10 C-3 6.23856995 -1.75881567 3.28312259 0 0 Z " fill="#272324" transform="translate(121,239)"/>
<path d="M0 0 C0.391875 0.45375 0.78375 0.9075 1.1875 1.375 C3.30832487 3.27642919 5.33042235 4.06204028 8 5 C4.25 8 4.25 8 2 8 C2 7.01 2 6.02 2 5 C1.01 4.67 0.02 4.34 -1 4 C-0.67 2.68 -0.34 1.36 0 0 Z M0 7 C1.5 8.375 1.5 8.375 3 10 C3 10.66 3 11.32 3 12 C0.525 11.01 0.525 11.01 -2 10 C-2 9.34 -2 8.68 -2 8 C-1.34 7.67 -0.68 7.34 0 7 Z " fill="#2D2B2C" transform="translate(148,142)"/>
<path d="M0 0 C1.65 0 3.3 0 5 0 C6.125 2.25 6.125 2.25 7 5 C6.125 7.3125 6.125 7.3125 5 9 C2 8 2 8 0.25 5.625 C-1 3 -1 3 0 0 Z " fill="#232021" transform="translate(85,9)"/>
<path d="M0 0 C0.33 0.99 0.66 1.98 1 3 C-1.59534021 7.29304395 -5.41138053 10.96061357 -10 13 C-10.66 12.67 -11.32 12.34 -12 12 C-8.04 8.04 -4.08 4.08 0 0 Z " fill="#EEEDEE" transform="translate(177,237)"/>
<path d="M0 0 C0.33 0.99 0.66 1.98 1 3 C-1.3125 6.1875 -1.3125 6.1875 -4 9 C-4.66 9 -5.32 9 -6 9 C-6 9.66 -6 10.32 -6 11 C-6.99 11.66 -7.98 12.32 -9 13 C-9.99 12.67 -10.98 12.34 -12 12 C-8.04 8.04 -4.08 4.08 0 0 Z " fill="#E8E7E8" transform="translate(56,233)"/>
<path d="M0 0 C1.32229189 2.64458379 1.09677194 4.67761301 1.0625 7.625 C1.05347656 8.62789062 1.04445312 9.63078125 1.03515625 10.6640625 C1.02355469 11.43492188 1.01195312 12.20578125 1 13 C0.34 13 -0.32 13 -1 13 C-2.28317892 9.15046324 -2.06643637 6.05261865 -2 2 C-2.99 1.67 -3.98 1.34 -5 1 C-5.33 1.66 -5.66 2.32 -6 3 C-6.33 2.01 -6.66 1.02 -7 0 C-4.30234372 -1.34882814 -2.84835666 -0.80338265 0 0 Z " fill="#373637" transform="translate(162,105)"/>
<path d="M0 0 C0.66 0.66 1.32 1.32 2 2 C-2.29 6.29 -6.58 10.58 -11 15 C-11.66 14.34 -12.32 13.68 -13 13 C-12.01 12.67 -11.02 12.34 -10 12 C-9.71125 11.401875 -9.4225 10.80375 -9.125 10.1875 C-7.64214899 7.30417859 -5.53904603 5.98169446 -3 4 C-1.23676495 1.87396815 -1.23676495 1.87396815 0 0 Z " fill="#F4F4F4" transform="translate(237,188)"/>
<path d="M0 0 C1.125 1.6875 1.125 1.6875 2 4 C1.4375 6.6875 1.4375 6.6875 0 9 C-2.625 9.8125 -2.625 9.8125 -5 10 C-4.49701212 5.59885603 -2.91227269 3.28804981 0 0 Z " fill="#292627" transform="translate(46,231)"/>
<path d="M0 0 C-0.33 2.31 -0.66 4.62 -1 7 C-1.66 6.34 -2.32 5.68 -3 5 C-3.99 5.495 -3.99 5.495 -5 6 C-5.33 5.67 -5.66 5.34 -6 5 C-6.66 5.66 -7.32 6.32 -8 7 C-8 5.02 -8 3.04 -8 1 C-3.375 -1.125 -3.375 -1.125 0 0 Z " fill="#181617" transform="translate(147,132)"/>
<path d="M0 0 C2.4375 0.375 2.4375 0.375 5 1 C5.33 1.66 5.66 2.32 6 3 C5.67 3.99 5.34 4.98 5 6 C3.35 6 1.7 6 0 6 C0 5.34 0 4.68 0 4 C-0.66 4 -1.32 4 -2 4 C-1.34 2.68 -0.68 1.36 0 0 Z " fill="#2C2A2B" transform="translate(202,0)"/>
<path d="M0 0 C2.125 0.375 2.125 0.375 4 1 C2.79618552 3.49361571 1.54571278 5.68143083 0 8 C-0.99 7.67 -1.98 7.34 -3 7 C-2.25 2.25 -2.25 2.25 0 0 Z " fill="#EBEAEB" transform="translate(60,11)"/>
<path d="M0 0 C0.33 0.66 0.66 1.32 1 2 C2.65 1.34 4.3 0.68 6 0 C5.67 1.65 5.34 3.3 5 5 C5.66 5.33 6.32 5.66 7 6 C6.01 6.66 5.02 7.32 4 8 C1 6 1 6 0 5 C-0.04063832 3.33382885 -0.042721 1.66611905 0 0 Z " fill="#2C2829" transform="translate(113,6)"/>
<path d="M0 0 C0.66 0 1.32 0 2 0 C0.61811547 3.21043882 -0.92421903 5.04936365 -3.625 7.25 C-4.57246094 8.03117188 -4.57246094 8.03117188 -5.5390625 8.828125 C-6.02117187 9.21484375 -6.50328125 9.6015625 -7 10 C-7.99 9.01 -8.98 8.02 -10 7 C-8.02 6.67 -6.04 6.34 -4 6 C-4 5.34 -4 4.68 -4 4 C-3.34 4 -2.68 4 -2 4 C-1.34 2.68 -0.68 1.36 0 0 Z " fill="#ECEBEC" transform="translate(178,143)"/>
<path d="M0 0 C2 1 2 1 3 3 C2.34 3 1.68 3 1 3 C1 3.66 1 4.32 1 5 C2.32 4.67 3.64 4.34 5 4 C4.67 4.99 4.34 5.98 4 7 C2.0625 7.8125 2.0625 7.8125 0 8 C-0.66 7.34 -1.32 6.68 -2 6 C-1.44444444 1.44444444 -1.44444444 1.44444444 0 0 Z " fill="#262425" transform="translate(67,92)"/>
<path d="M0 0 C0.33 0.66 0.66 1.32 1 2 C0.34 1.67 -0.32 1.34 -1 1 C-0.67 0.67 -0.34 0.34 0 0 Z M-3 2 C-2.34 2.33 -1.68 2.66 -1 3 C-1.99 3.66 -2.98 4.32 -4 5 C-3.67 4.01 -3.34 3.02 -3 2 Z M-5 5 C-2.875 5.9375 -2.875 5.9375 -1 7 C-2.65 8.65 -4.3 10.3 -6 12 C-6.66 11.34 -7.32 10.68 -8 10 C-7.34 10 -6.68 10 -6 10 C-6.33 8.68 -6.66 7.36 -7 6 C-6.34 5.67 -5.68 5.34 -5 5 Z " fill="#EBEBEB" transform="translate(116,15)"/>
<path d="M0 0 C0.33 0.66 0.66 1.32 1 2 C1.99 2.33 2.98 2.66 4 3 C2 5 2 5 -0.4375 5.375 C-3 5 -3 5 -4.8125 3 C-5.4003125 2.01 -5.4003125 2.01 -6 1 C-4.02 0.67 -2.04 0.34 0 0 Z " fill="#292829" transform="translate(163,245)"/>
<path d="M0 0 C3.23306062 1.42635027 4.36060941 3.97584436 6.125 6.9375 C3.125 6.9375 3.125 6.9375 1.125 5.0625 C0.465 4.36125 -0.195 3.66 -0.875 2.9375 C-1.865 2.2775 -2.855 1.6175 -3.875 0.9375 C-1.875 -0.0625 -1.875 -0.0625 0 0 Z " fill="#ECECEC" transform="translate(144.875,219.0625)"/>
<path d="M0 0 C0.66 0.33 1.32 0.66 2 1 C1.67 3.31 1.34 5.62 1 8 C0.67 8 0.34 8 0 8 C-0.33 9.98 -0.66 11.96 -1 14 C-1.33 14 -1.66 14 -2 14 C-2 10.37 -2 6.74 -2 3 C-2.66 2.67 -3.32 2.34 -4 2 C-2.68 2 -1.36 2 0 2 C0 1.34 0 0.68 0 0 Z " fill="#3F3C3D" transform="translate(156,184)"/>
<path d="M0 0 C2.25 -0.25 2.25 -0.25 5 0 C7.3125 2 7.3125 2 9 4 C8.34 5.32 7.68 6.64 7 8 C5.83035398 6.8572081 4.66435444 5.71068285 3.5 4.5625 C2.8503125 3.92441406 2.200625 3.28632812 1.53125 2.62890625 C0 1 0 1 0 0 Z " fill="#DDDCDC" transform="translate(81,0)"/>
<path d="M0 0 C3.88862987 1.26117725 5.89375599 2.45264167 8 6 C8 6.66 8 7.32 8 8 C7.01 7.67 6.02 7.34 5 7 C4.67 6.01 4.34 5.02 4 4 C2.02 4 0.04 4 -2 4 C-1.34 2.68 -0.68 1.36 0 0 Z " fill="#F4F3F3" transform="translate(131,23)"/>
<path d="M0 0 C0.66 0.33 1.32 0.66 2 1 C0.89718873 2.27200971 -0.20730769 3.54255853 -1.3125 4.8125 C-2.23482422 5.87404297 -2.23482422 5.87404297 -3.17578125 6.95703125 C-4.73334335 8.70136739 -6.32658875 10.36778041 -8 12 C-8 8 -8 8 -5.6875 5.4375 C-4.800625 4.633125 -3.91375 3.82875 -3 3 C-2.401875 2.401875 -1.80375 1.80375 -1.1875 1.1875 C-0.795625 0.795625 -0.40375 0.40375 0 0 Z " fill="#F2F1F1" transform="translate(108,5)"/>
<path d="M0 0 C2.25 -0.375 2.25 -0.375 5 0 C7.3125 3 7.3125 3 9 6 C8.34 6.66 7.68 7.32 7 8 C5.83035398 6.8572081 4.66435444 5.71068285 3.5 4.5625 C2.8503125 3.92441406 2.200625 3.28632812 1.53125 2.62890625 C0 1 0 1 0 0 Z " fill="#DCDBDB" transform="translate(39,0)"/>
<path d="M0 0 C2.31 1.98 4.62 3.96 7 6 C6.01 6.99 5.02 7.98 4 9 C2.35 6.69 0.7 4.38 -1 2 C-0.67 1.34 -0.34 0.68 0 0 Z " fill="#EAE9E9" transform="translate(58,231)"/>
<path d="M0 0 C0.66 0 1.32 0 2 0 C2.66 1.32 3.32 2.64 4 4 C1.69 5.98 -0.62 7.96 -3 10 C-2.67 8.35 -2.34 6.7 -2 5 C-1.34 5 -0.68 5 0 5 C0 3.35 0 1.7 0 0 Z " fill="#F3F3F3" transform="translate(51,27)"/>
<path d="M0 0 C1.65 0 3.3 0 5 0 C5.28875 0.639375 5.5775 1.27875 5.875 1.9375 C6.82823451 4.15206079 6.82823451 4.15206079 9 5 C8.67 5.99 8.34 6.98 8 8 C6.85073734 7.04578192 5.70569459 6.08647955 4.5625 5.125 C3.92441406 4.59132813 3.28632813 4.05765625 2.62890625 3.5078125 C1 2 1 2 0 0 Z " fill="#2E2D2D" transform="translate(129,18)"/>
<path d="M0 0 C1.17539996 0.92652701 2.34010577 1.86663387 3.5 2.8125 C4.1496875 3.33457031 4.799375 3.85664063 5.46875 4.39453125 C7 6 7 6 7 9 C3.46352496 7.32482761 2.2088437 6.50719183 0.6875 2.8125 C0.460625 1.884375 0.23375 0.95625 0 0 Z " fill="#312E2F" transform="translate(70,231)"/>
<path d="M0 0 C0.66 0.33 1.32 0.66 2 1 C2 1.66 2 2.32 2 3 C2.66 3.33 3.32 3.66 4 4 C3.67 4.99 3.34 5.98 3 7 C0.9375 7.6875 0.9375 7.6875 -1 8 C-1.625 5.6875 -1.625 5.6875 -2 3 C-1.34 2.01 -0.68 1.02 0 0 Z " fill="#1E1B1C" transform="translate(148,13)"/>
<path d="M0 0 C0.66 0.66 1.32 1.32 2 2 C0.88121617 3.17262904 -0.24523051 4.33795138 -1.375 5.5 C-2.00148438 6.1496875 -2.62796875 6.799375 -3.2734375 7.46875 C-5 9 -5 9 -7 9 C-5.44499019 5.18315774 -2.96404505 2.80804268 0 0 Z " fill="#F3F3F3" transform="translate(12,215)"/>
<path d="M0 0 C0.99 0.33 1.98 0.66 3 1 C1.71034824 2.37562854 0.37310707 3.70766393 -1 5 C-1.66 5 -2.32 5 -3 5 C-3.66 6.32 -4.32 7.64 -5 9 C-5.66 8.67 -6.32 8.34 -7 8 C-4.69 5.36 -2.38 2.72 0 0 Z " fill="#F4F4F4" transform="translate(230,8)"/>
<path d="M0 0 C0.8353125 0.37125 0.8353125 0.37125 1.6875 0.75 C-0.5625 3.25 -0.5625 3.25 -3.3125 5.75 C-4.6325 5.75 -5.9525 5.75 -7.3125 5.75 C-7.3125 5.09 -7.3125 4.43 -7.3125 3.75 C-3.10958131 -0.33617095 -3.10958131 -0.33617095 0 0 Z " fill="#F2F3F3" transform="translate(200.3125,0.25)"/>
<path d="M0 0 C1.70884005 1.62339805 3.37446717 3.29319053 5 5 C5 5.66 5 6.32 5 7 C5.33 7.66 5.66 8.32 6 9 C4.125 8.8125 4.125 8.8125 2 8 C0.47835901 5.10888212 0 3.28176588 0 0 Z " fill="#312F30" transform="translate(193,229)"/>
<path d="M0 0 C0 3.77910478 -0.99703962 4.46106101 -3.5 7.1875 C-4.1496875 7.90292969 -4.799375 8.61835938 -5.46875 9.35546875 C-5.9740625 9.89816406 -6.479375 10.44085938 -7 11 C-7.99 10.67 -8.98 10.34 -10 10 C-6.7 6.7 -3.4 3.4 0 0 Z " fill="#484647" transform="translate(133,227)"/>
<path d="M0 0 C0.93065133 2.60582371 1.14917407 3.64198224 0.0625 6.25 C-0.4634375 7.11625 -0.4634375 7.11625 -1 8 C-1.99 7.67 -2.98 7.34 -4 7 C-4.6875 4.9375 -4.6875 4.9375 -5 3 C-4.360625 2.87625 -3.72125 2.7525 -3.0625 2.625 C-2.0415625 2.315625 -2.0415625 2.315625 -1 2 C-0.67 1.34 -0.34 0.68 0 0 Z " fill="#252324" transform="translate(153,178)"/>
<path d="M0 0 C0.66 0.33 1.32 0.66 2 1 C2 1.99 2 2.98 2 4 C0 5.6875 0 5.6875 -2 7 C-2.66 6.67 -3.32 6.34 -4 6 C-2.84826645 3.53199953 -1.95216435 1.95216435 0 0 Z " fill="#E1E0E1" transform="translate(152,125)"/>
<path d="M0 0 C0.66 0.66 1.32 1.32 2 2 C0.35 3.98 -1.3 5.96 -3 8 C-3.66 7.01 -4.32 6.02 -5 5 C-3.35 3.35 -1.7 1.7 0 0 Z " fill="#E9E8E9" transform="translate(183,231)"/>
<path d="M0 0 C1.98 0 3.96 0 6 0 C4.71034824 1.37562854 3.37310707 2.70766393 2 4 C1.34 4 0.68 4 0 4 C0 4.66 0 5.32 0 6 C-1.65 6.33 -3.3 6.66 -5 7 C-4.0409375 6.6596875 -4.0409375 6.6596875 -3.0625 6.3125 C-0.72806339 5.14749104 -0.72806339 5.14749104 -0.25 2.375 C-0.1675 1.59125 -0.085 0.8075 0 0 Z " fill="#F1F0F0" transform="translate(169,140)"/>
<path d="M0 0 C0 3.16880694 -0.2058242 4.43689172 -2 7 C-4.625 7.75 -4.625 7.75 -7 8 C-6.02133662 6.85373678 -5.04205413 5.70800212 -4.0625 4.5625 C-3.51722656 3.92441406 -2.97195312 3.28632813 -2.41015625 2.62890625 C-1.63204305 1.73008851 -0.84063472 0.84063472 0 0 Z " fill="#ECEAEB" transform="translate(199,15)"/>
<path d="M0 0 C0.99 0.66 1.98 1.32 3 2 C1.72485508 4.55028983 0.59658703 4.93081711 -2 6 C-2.99 6 -3.98 6 -5 6 C-3.35 4.02 -1.7 2.04 0 0 Z " fill="#1D1B1C" transform="translate(160,2)"/>
<path d="M0 0 C0 3.90838866 -1.50567876 5.11594107 -4 8 C-4 7.34 -4 6.68 -4 6 C-4.66 5.67 -5.32 5.34 -6 5 C-6 4.34 -6 3.68 -6 3 C-4.02 2.01 -2.04 1.02 0 0 Z " fill="#F3F3F3" transform="translate(67,214)"/>
<path d="M0 0 C0.99 0.33 1.98 0.66 3 1 C2.60196439 3.88575819 2.20990931 4.82189513 -0.0625 6.75 C-0.701875 7.1625 -1.34125 7.575 -2 8 C-1.34 6.35 -0.68 4.7 0 3 C-0.66 2.67 -1.32 2.34 -2 2 C-1.34 1.34 -0.68 0.68 0 0 Z " fill="#191718" transform="translate(124,242)"/>
<path d="M0 0 C1.32 0.33 2.64 0.66 4 1 C4 1.66 4 2.32 4 3 C4.66 3 5.32 3 6 3 C5 5 5 5 3 6 C3 5.34 3 4.68 3 4 C1.35 4 -0.3 4 -2 4 C-1.34 3.67 -0.68 3.34 0 3 C0 2.01 0 1.02 0 0 Z " fill="#1D1C1C" transform="translate(131,14)"/>
<path d="M0 0 C0.33 0.99 0.66 1.98 1 3 C1.66 3.33 2.32 3.66 3 4 C-1.455 5.485 -1.455 5.485 -6 7 C-4.02 4.69 -2.04 2.38 0 0 Z " fill="#333132" transform="translate(193,9)"/>
<path d="M0 0 C0.33 0.66 0.66 1.32 1 2 C-0.4375 4.625 -0.4375 4.625 -2 7 C-3.32 6.67 -4.64 6.34 -6 6 C-4.02 4.02 -2.04 2.04 0 0 Z " fill="#2C2A2B" transform="translate(74,3)"/>
<path d="M0 0 C1.32 0.66 2.64 1.32 4 2 C4 3.32 4 4.64 4 6 C2.02 4.68 0.04 3.36 -2 2 C-1.34 1.34 -0.68 0.68 0 0 Z " fill="#2C2729" transform="translate(141,228)"/>
<path d="M0 0 C3.36720387 1.39332574 4.9859524 2.9789286 7 6 C4 6 4 6 1.8125 4.125 C0 2 0 2 0 0 Z " fill="#302E2F" transform="translate(186,223)"/>
<path d="M0 0 C0 3 0 3 -1.375 4.6875 C-3 6 -3 6 -5 6 C-5 5.34 -5 4.68 -5 4 C-5.66 3.67 -6.32 3.34 -7 3 C-4.69 2.01 -2.38 1.02 0 0 Z " fill="#E1E0E1" transform="translate(170,183)"/>
<path d="M0 0 C-0.33 0.66 -0.66 1.32 -1 2 C-2.65 2 -4.3 2 -6 2 C-6.33 3.65 -6.66 5.3 -7 7 C-7.33 7 -7.66 7 -8 7 C-8 5.35 -8 3.7 -8 2 C-8.66 1.67 -9.32 1.34 -10 1 C-6.1496895 -1.56687367 -4.41430237 -0.83288724 0 0 Z " fill="#C1BFC0" transform="translate(146,163)"/>
<path d="M0 0 C0 2.66666667 0 5.33333333 0 8 C-0.99 8.33 -1.98 8.66 -3 9 C-4 7 -4 7 -3.1875 4.5 C-2 2 -2 2 0 0 Z " fill="#333031" transform="translate(147,13)"/>
<path d="M0 0 C0.625 1.875 0.625 1.875 1 4 C0.34 4.66 -0.32 5.32 -1 6 C-3.625 5.625 -3.625 5.625 -6 5 C-5.67 4.01 -5.34 3.02 -5 2 C-3.02 2.495 -3.02 2.495 -1 3 C-0.67 2.01 -0.34 1.02 0 0 Z " fill="#151515" transform="translate(177,134)"/>
<path d="M0 0 C2.31 0.66 4.62 1.32 7 2 C5 4 5 4 2.375 4.125 C1.59125 4.08375 0.8075 4.0425 0 4 C0 2.66666667 0 1.33333333 0 0 Z " fill="#2D2B2C" transform="translate(97,25)"/>
<path d="M0 0 C2.4375 0.8125 2.4375 0.8125 5 2 C5.33 2.99 5.66 3.98 6 5 C3 5 3 5 0 3 C0 2.01 0 1.02 0 0 Z " fill="#F0F0F0" transform="translate(49,8)"/>
<path d="M0 0 C2 0 2 0 3.625 1.375 C5 3 5 3 5 5 C5.66 5.33 6.32 5.66 7 6 C6.01 6.33 5.02 6.66 4 7 C2 5.1875 2 5.1875 0 3 C0 2.01 0 1.02 0 0 Z " fill="#2A2728" transform="translate(162,7)"/>
<path d="M0 0 C0.99 0 1.98 0 3 0 C3 2.31 3 4.62 3 7 C2.01 6.67 1.02 6.34 0 6 C0 4.02 0 2.04 0 0 Z " fill="#2C2729" transform="translate(78,239)"/>
<path d="M0 0 C0.99 0.99 1.98 1.98 3 3 C2.01 3.66 1.02 4.32 0 5 C-0.33 5.66 -0.66 6.32 -1 7 C-1.66 6.34 -2.32 5.68 -3 5 C-2.67 4.01 -2.34 3.02 -2 2 C-1.34 2 -0.68 2 0 2 C0 1.34 0 0.68 0 0 Z " fill="#322E2F" transform="translate(170,120)"/>
</svg>
