<?xml version="1.0" encoding="UTF-8"?>
<svg version="1.1" xmlns="http://www.w3.org/2000/svg" width="311" height="200">
<path d="M0 0 C102.63 0 205.26 0 311 0 C311 66 311 132 311 200 C208.37 200 105.74 200 0 200 C0 134 0 68 0 0 Z " fill="#020202" transform="translate(0,0)"/>
<path d="M0 0 C102.63 0 205.26 0 311 0 C311 37.62 311 75.24 311 114 C310.34 114 309.68 114 309 114 C308.57589844 112.93523437 308.15179688 111.87046875 307.71484375 110.7734375 C303.88702128 101.26177838 299.68712229 92.12278952 295 83 C294.32808403 81.64323384 293.65890674 80.28510864 292.9921875 78.92578125 C289.30340654 71.41390628 285.55188778 64.03690787 281 57 C280.45730469 56.14792969 279.91460937 55.29585937 279.35546875 54.41796875 C272.3200172 43.82508798 263.30985086 36.41794203 250.62133789 33.44213867 C228.73283374 29.75022463 207.41636877 35.42258863 189.375 48 C185.03602851 51.50196369 181.49333623 56.01332754 179 61 C176.23498164 59.9427871 173.6288586 58.80669719 171 57.4375 C163.31052927 53.75296194 151.97561799 53.27934309 143.87109375 56.08203125 C141.28108204 57.38097661 141.28108204 57.38097661 139.015625 58.80859375 C136.99540445 60.00271636 135.29029861 60.55122527 133 61 C132.61521484 60.27296875 132.61521484 60.27296875 132.22265625 59.53125 C125.6077891 47.94966441 115.84718236 42.95499507 104 38 C102.83404297 37.48953125 102.83404297 37.48953125 101.64453125 36.96875 C87.77235006 31.24826291 67.45344533 29.99560293 53.46875 35.7421875 C36.03575359 44.62418884 28.00125744 61.5765169 19.4375 78.3125 C19.11228363 78.94485565 18.78706726 79.5772113 18.45199585 80.22872925 C11.64001848 93.48698374 5.36092347 106.69833794 1 121 C0.67 121 0.34 121 0 121 C0 81.07 0 41.14 0 0 Z " fill="#FBFBFB" transform="translate(0,0)"/>
<path d="M0 0 C8.80677856 6.34606102 14.52001434 14.18611322 18.25 24.3125 C18.61609375 25.28445312 18.9821875 26.25640625 19.359375 27.2578125 C22.25727698 37.19710789 20.37872607 48.7800992 15.9609375 58.00390625 C9.29975026 69.66988925 0.30443507 78.13694148 -12.49438477 82.72143555 C-22.80417326 85.42302641 -36.71537111 84.81137048 -46.20703125 80.00390625 C-50.86065391 76.90863957 -54.80835792 73.25414208 -58.75 69.3125 C-60.11125 68.1678125 -60.11125 68.1678125 -61.5 67 C-70.44196709 56.31931708 -72.91326246 43.85935393 -71.75 30.3125 C-69.44103665 18.91977067 -62.87024671 8.55191762 -53.75 1.3125 C-50.20259802 -0.97336389 -46.56624076 -2.89098152 -42.75 -4.6875 C-42.04230469 -5.03039062 -41.33460938 -5.37328125 -40.60546875 -5.7265625 C-26.86746864 -11.34784744 -12.14305038 -7.36133106 0 0 Z " fill="#FAFAFA" transform="translate(270.75,94.6875)"/>
<path d="M0 0 C7.7932846 6.02839317 13.07163182 15.60420998 14.90625 25.20703125 C16.06213052 34.49688578 15.39937017 42.94120813 12.22265625 51.75 C11.97902344 52.43449219 11.73539062 53.11898437 11.484375 53.82421875 C6.83307886 64.69193913 -2.97765789 73.16329535 -13.75756836 77.55712891 C-19.33035915 79.61266151 -24.29907386 80.22920814 -30.21484375 80.125 C-31.04669189 80.11557373 -31.87854004 80.10614746 -32.7355957 80.09643555 C-42.43400699 79.85822229 -49.95108372 77.53668923 -57.77734375 71.75 C-58.44636719 71.25757813 -59.11539063 70.76515625 -59.8046875 70.2578125 C-68.46834485 63.30693194 -74.27414372 53.78665286 -75.77734375 42.75 C-77.1265356 29.05221887 -76.02138464 17.59607431 -67.24609375 6.3984375 C-62.2817905 0.48129973 -56.97645213 -4.25147229 -49.77734375 -7.25 C-48.70806641 -7.70439453 -48.70806641 -7.70439453 -47.6171875 -8.16796875 C-30.338007 -15.04734341 -14.64759423 -10.30160473 0 0 Z " fill="#FAFAFA" transform="translate(97.77734375,98.25)"/>
<path d="M0 0 C0.83538898 -0.0013775 1.67077795 -0.00275499 2.53148174 -0.00417423 C3.4481553 -0.00057612 4.36482885 0.00302198 5.3092804 0.00672913 C6.29094838 0.00660859 7.27261637 0.00648806 8.28403187 0.00636387 C11.46605497 0.00711108 14.64801971 0.01473067 17.83003235 0.02259827 C19.79280062 0.02406828 21.75556927 0.02508862 23.71833801 0.02565002 C31.00166918 0.03089605 38.28499196 0.04485722 45.5683136 0.05775452 C69.9780011 0.08869202 69.9780011 0.08869202 94.8808136 0.12025452 C94.8808136 37.74025452 94.8808136 75.36025452 94.8808136 114.12025452 C94.2208136 114.12025452 93.5608136 114.12025452 92.8808136 114.12025452 C92.45671204 113.05548889 92.03261047 111.99072327 91.59565735 110.89369202 C87.76783488 101.3820329 83.56793589 92.24304404 78.8808136 83.12025452 C78.20889763 81.76348835 77.53972034 80.40536316 76.8730011 79.04603577 C73.18422014 71.53416079 69.43270137 64.15716239 64.8808136 57.12025452 C64.33811829 56.2681842 63.79542297 55.41611389 63.23628235 54.53822327 C56.2008308 43.9453425 47.19066446 36.53819655 34.50215149 33.56239319 C15.29708468 30.32309208 -1.96194407 34.41923624 -18.8535614 43.41322327 C-22.1191864 45.12025452 -22.1191864 45.12025452 -25.1191864 46.12025452 C-27.3066864 45.18275452 -27.3066864 45.18275452 -29.1191864 44.12025452 C-29.7791864 44.78025452 -30.4391864 45.44025452 -31.1191864 46.12025452 C-31.7791864 45.79025452 -32.4391864 45.46025452 -33.1191864 45.12025452 C-33.17367868 42.28665608 -33.21309373 39.45412967 -33.2441864 36.62025452 C-33.26094421 35.82877014 -33.27770203 35.03728577 -33.29496765 34.22181702 C-33.36856066 25.2434701 -31.77936229 18.16315016 -25.5019989 11.37025452 C-18.99443657 5.10571318 -9.19110633 -0.01164906 0 0 Z " fill="#FAFAFA" transform="translate(216.1191864013672,-0.1202545166015625)"/>
<path d="M0 0 C0.66 0 1.32 0 2 0 C3.0078125 1.57421875 3.0078125 1.57421875 4.125 3.6875 C6.99380535 8.32869947 9.73530915 11.26377217 15 13 C22.32906962 13.90611036 29.93201972 14.24804457 36.41796875 10.27734375 C39.98571812 7.39671648 42.52852487 4.41442538 44 0 C44.66 0 45.32 0 46 0 C46.15855469 0.65484375 46.31710938 1.3096875 46.48046875 1.984375 C51.61100664 22.05299834 61.60637643 37.56961869 79.6875 48.375 C87.00137644 52.54686966 94.79916765 54.38113439 103 56 C103 56.33 103 56.66 103 57 C50.53 57 -1.94 57 -56 57 C-52.90008962 54.93339308 -50.50374604 54.18638894 -46.9375 53.1875 C-29.78962584 47.99751148 -16.32510847 37.3868017 -7.3828125 21.75 C-3.88704435 14.79796391 -1.07588326 7.72784965 0 0 Z " fill="#FBFBFB" transform="translate(133,143)"/>
<path d="M0 0 C37.29 0 74.58 0 113 0 C110.10715119 1.92856587 107.61791538 2.92671344 104.375 4.125 C96.97087953 7.16742041 91.33967105 11.34426399 87 18.125 C84.9346511 24.06287808 84.74027495 30.1507411 84.4375 36.375 C84.37272461 37.62216797 84.37272461 37.62216797 84.30664062 38.89453125 C84.20138195 40.92953228 84.10026928 42.96474703 84 45 C84.763125 44.62875 85.52625 44.2575 86.3125 43.875 C87.6428125 43.441875 87.6428125 43.441875 89 43 C90.485 43.99 90.485 43.99 92 45 C92 45.66 92 46.32 92 47 C90.79260954 48.110682 89.53265169 49.16465549 88.25 50.1875 C84.36651275 53.46505307 82.22452039 56.45827088 80 61 C77.23498164 59.9427871 74.6288586 58.80669719 72 57.4375 C64.31052927 53.75296194 52.97561799 53.27934309 44.87109375 56.08203125 C42.28108204 57.38097661 42.28108204 57.38097661 40.015625 58.80859375 C37.99540445 60.00271636 36.29029861 60.55122527 34 61 C33.70867187 60.50371094 33.41734375 60.00742187 33.1171875 59.49609375 C30.1490755 54.57724147 26.86327803 50.24827824 23 46 C25 44 25 44 27.625 43.875 C28.40875 43.91625 29.1925 43.9575 30 44 C29.91809376 40.83235551 29.80535409 37.66649468 29.6875 34.5 C29.66494141 33.613125 29.64238281 32.72625 29.61914062 31.8125 C29.27252828 23.241722 27.54944986 16.57491261 21.08203125 10.59765625 C14.85335941 5.81805629 7.45748488 3.21562957 0 1 C0 0.67 0 0.34 0 0 Z " fill="#FBFBFB" transform="translate(99,0)"/>
<path d="M0 0 C8.86721797 5.38592044 17.42414142 13.77333083 20.4296875 23.9921875 C20.58630859 24.82169922 20.58630859 24.82169922 20.74609375 25.66796875 C13.2172476 24.7593149 13.2172476 24.7593149 10.06640625 24.1484375 C-9.24013439 21.3546675 -29.53442404 24.63991868 -45.97265625 35.45703125 C-47.2989947 36.47100739 -48.60449701 37.51387965 -49.87109375 38.6015625 C-51.25390625 39.66796875 -51.25390625 39.66796875 -53.25390625 39.66796875 C-53.4006237 36.16841891 -53.48844213 32.66967172 -53.56640625 29.16796875 C-53.60830078 28.18570312 -53.65019531 27.2034375 -53.69335938 26.19140625 C-53.82984259 18.00241321 -51.64297132 13.6546754 -46.4375 7.53125 C-33.92726261 -3.57963198 -15.2830088 -7.4030314 0 0 Z " fill="#050505" transform="translate(237.25390625,3.33203125)"/>
<path d="M0 0 C6.3116335 3.53562725 11.45505554 8.57632988 14.77294922 14.99316406 C15.11352539 17.67211914 15.11352539 17.67211914 15.06591797 20.51269531 C15.05625 21.53427734 15.04658203 22.55585938 15.03662109 23.60839844 C15.01148438 24.66349609 14.98634766 25.71859375 14.96044922 26.80566406 C14.94014648 28.41731445 14.94014648 28.41731445 14.91943359 30.06152344 C14.88417499 32.70591862 14.83489288 35.34928154 14.77294922 37.99316406 C12.38825664 36.82737836 10.15192196 35.61299467 7.88232422 34.22363281 C-6.01408022 25.77267988 -19.85098276 21.81653253 -36.16455078 21.80566406 C-37.128125 21.79341797 -38.09169922 21.78117187 -39.08447266 21.76855469 C-44.56959528 21.757307 -49.02927096 22.26283266 -54.22705078 23.99316406 C-57.16455078 24.11816406 -57.16455078 24.11816406 -59.22705078 23.99316406 C-55.00875416 12.68323833 -47.69496595 3.12633607 -36.85205078 -2.44433594 C-24.64868219 -7.7044086 -11.66521711 -5.71592608 0 0 Z " fill="#050505" transform="translate(113.22705078125,5.0068359375)"/>
<path d="M0 0 C2.61696435 2.61696435 2.76972957 4.71956487 3.625 8.3125 C8.3961548 25.51330533 20.20213445 38.53805233 35.3984375 47.3984375 C41.95792164 50.90107466 48.86017381 52.99681993 56 55 C56 55.33 56 55.66 56 56 C37.52 56 19.04 56 0 56 C0 37.52 0 19.04 0 0 Z " fill="#F9F9F9" transform="translate(0,144)"/>
<path d="M0 0 C0.66 0 1.32 0 2 0 C2 16.17 2 32.34 2 49 C-16.81 49 -35.62 49 -55 49 C-51.37832653 47.18916327 -48.45881658 46.32143785 -44.5625 45.375 C-28.65503784 40.89844523 -15.46287298 30.09759198 -7 16 C-4.13215405 10.83635183 -1.64752783 5.69145979 0 0 Z " fill="#FAFAFA" transform="translate(309,151)"/>
<path d="M0 0 C2.77451493 2.97269457 3.17621166 5.93345175 3.75 9.8125 C4.85212869 15.62687968 7.07566396 19.59653569 12 23 C15.36931493 24.09472326 18.60990173 24.79083364 22.109375 25.33203125 C25.13074495 26.03021268 26.22910756 26.50134354 28 29 C28.5 31.9375 28.5 31.9375 28 35 C26.0625 37.4375 26.0625 37.4375 23 39 C15.65343481 39.6036256 6.69790385 36.81614858 0.88671875 32.390625 C-7.32821982 24.43954955 -10.149291 16.96880238 -10.4609375 5.70703125 C-10 3 -10 3 -8.16796875 1.16796875 C-5.18952913 -0.43663206 -3.32714425 -0.56632242 0 0 Z " fill="#070707" transform="translate(220,131)"/>
<path d="M0 0 C7.75 0.75 7.75 0.75 10 3 C10.52734375 5.171875 10.52734375 5.171875 10.9375 7.75 C12.23103592 14.65549175 14.11765049 18.9251214 20 23 C23.52070708 24.28860887 23.52070708 24.28860887 27.25 25.1875 C33.9256662 26.9256662 33.9256662 26.9256662 35 28 C35.46650525 34.29782082 35.46650525 34.29782082 33.87109375 36.69921875 C29.7091236 39.59261345 23.81949016 38.51392668 19 38 C10.81965267 35.5458958 4.15752223 29.34200734 0 22 C-2.6424905 16.22880075 -3.98924931 10.34134174 -3 4 C-1.5 1.4375 -1.5 1.4375 0 0 Z " fill="#070707" transform="translate(35,131)"/>
<path d="M0 0 C3.21368343 3.2046308 4.87869045 6.12050579 5.5 10.625 C4.73947068 15.75857294 2.83452433 18.08599716 -0.625 21.875 C-4.55979562 24.35246391 -6.35775584 24.50431811 -10.81640625 23.71484375 C-15.0969051 22.31353554 -17.76807503 19.73589427 -20.375 16.0625 C-21.25688519 13.15227888 -21.36405994 11.03383286 -21 8 C-18.79170204 4.11644151 -16.48655748 0.06566749 -12.25 -1.75 C-8.00132252 -2.22207528 -4.02011102 -1.34003701 0 0 Z " fill="#F6F6F6" transform="translate(164,123)"/>
<path d="M0 0 C0.33 0 0.66 0 1 0 C1 6.6 1 13.2 1 20 C-0.98 20.33 -2.96 20.66 -5 21 C-5 21.66 -5 22.32 -5 23 C-9.66666667 20.66666667 -14.33333333 18.33333333 -19 16 C-17.1328125 14.94921875 -17.1328125 14.94921875 -15 14 C-12.875 14.8125 -12.875 14.8125 -11 16 C-10.34 16.33 -9.68 16.66 -9 17 C-9 16.01 -9 15.02 -9 14 C-5.35008834 15.31802365 -3.2104799 16.59214008 0 19 C0 12.73 0 6.46 0 0 Z " fill="#D9D9D9" transform="translate(128,24)"/>
<path d="M0 0 C0.33 0 0.66 0 1 0 C1 5.28 1 10.56 1 16 C1.98742187 15.33871094 2.97484375 14.67742188 3.9921875 13.99609375 C5.28618088 13.14280826 6.58046693 12.28996649 7.875 11.4375 C8.52597656 10.99986328 9.17695313 10.56222656 9.84765625 10.11132812 C11.52625497 9.01245164 13.26023387 7.9992182 15 7 C15.66 7.33 16.32 7.66 17 8 C16.0022242 10.99332739 15.2477975 11.94766315 13 14 C13.33 14.66 13.66 15.32 14 16 C11.25 17.625 11.25 17.625 8 19 C5.625 18.1875 5.625 18.1875 4 17 C3.34 17.66 2.68 18.32 2 19 C1.34 18.67 0.68 18.34 0 18 C0 12.06 0 6.12 0 0 Z " fill="#E4E4E4" transform="translate(183,27)"/>
<path d="M0 0 C4.49733673 1.37418622 6.19217064 3.31472397 9 7 C10.63356951 8.37368345 12.2925002 9.71937515 14 11 C12.35 11 10.7 11 9 11 C9 10.34 9 9.68 9 9 C7.68 8.67 6.36 8.34 5 8 C4.67 9.65 4.34 11.3 4 13 C-1.875 8.375 -1.875 8.375 -3 5 C-2.34 5 -1.68 5 -1 5 C-0.67 3.35 -0.34 1.7 0 0 Z " fill="#E8E8E8" transform="translate(34,155)"/>
<path d="M0 0 C3.35478456 3.08993314 5.79241806 5.53194683 7 10 C6.67 10.66 6.34 11.32 6 12 C6.99 12.33 7.98 12.66 9 13 C9 13.66 9 14.32 9 15 C4.09254647 13.51289287 0.48846119 10.67726966 -3 7 C-4.4375 4.125 -4.4375 4.125 -5 2 C-4.360625 1.855625 -3.72125 1.71125 -3.0625 1.5625 C-1.02454854 1.18992819 -1.02454854 1.18992819 0 0 Z " fill="#F4F4F4" transform="translate(217,159)"/>
<path d="M0 0 C5.94 0 11.88 0 18 0 C18 0.99 18 1.98 18 3 C17.01 3.99 16.02 4.98 15 6 C10.05 4.35 5.1 2.7 0 1 C0 0.67 0 0.34 0 0 Z " fill="#F7F7F7" transform="translate(99,0)"/>
<path d="M0 0 C4.68270009 0.45908824 8.29366624 0.96754511 12 4 C12 5.32 12 6.64 12 8 C11.154375 7.67 10.30875 7.34 9.4375 7 C5.79010784 5.93894046 2.77725336 5.84890987 -1 6 C-0.67 4.02 -0.34 2.04 0 0 Z " fill="#F0F0F0" transform="translate(107,33)"/>
<path d="M0 0 C-0.33 1.32 -0.66 2.64 -1 4 C-6.61 4 -12.22 4 -18 4 C-14.930275 2.4651375 -12.24100109 1.32531284 -9 0.3125 C-8.154375 0.04050781 -7.30875 -0.23148438 -6.4375 -0.51171875 C-3.8767932 -1.02468085 -2.44171002 -0.84216387 0 0 Z " fill="#EBEBEB" transform="translate(272,196)"/>
<path d="M0 0 C0.66 0.33 1.32 0.66 2 1 C-0.10772185 5.21544371 -2.77446568 7.65069919 -6.34765625 10.57421875 C-8.22235813 12.19186931 -9.6460686 13.9292814 -11 16 C-11 10.37522089 -5.96398137 5.84998132 -2.125 2 C-1.42375 1.34 -0.7225 0.68 0 0 Z " fill="#181818" transform="translate(44,40)"/>
<path d="M0 0 C-0.33 0.66 -0.66 1.32 -1 2 C-4.0625 2.625 -4.0625 2.625 -7 3 C-7 3.66 -7 4.32 -7 5 C-10.63 5 -14.26 5 -18 5 C-14.81886649 2.87924433 -12.07995044 1.93982824 -8.4375 0.8125 C-7.28121094 0.44769531 -6.12492187 0.08289063 -4.93359375 -0.29296875 C-2 -1 -2 -1 0 0 Z " fill="#E0E0E0" transform="translate(95,195)"/>
<path d="M0 0 C3.12308506 0.60803426 5.19251662 1.62014042 7.75 3.5 C8.36359375 3.9434375 8.9771875 4.386875 9.609375 4.84375 C10.29773438 5.41609375 10.29773438 5.41609375 11 6 C11 6.33 11 6.66 11 7 C9.35 7 7.7 7 6 7 C6 6.34 6 5.68 6 5 C4.68 4.67 3.36 4.34 2 4 C1.67 5.32 1.34 6.64 1 8 C0.26919734 6.02253397 -0.39421747 4.01927511 -1 2 C-0.67 1.34 -0.34 0.68 0 0 Z " fill="#F0F0F0" transform="translate(37,159)"/>
<path d="M0 0 C1.9375 2.375 1.9375 2.375 3 5 C2.67 5.66 2.34 6.32 2 7 C1.1646875 6.2265625 1.1646875 6.2265625 0.3125 5.4375 C-1.94085007 3.70523302 -1.94085007 3.70523302 -4.75 4.3125 C-5.4925 4.539375 -6.235 4.76625 -7 5 C-7.33 3.68 -7.66 2.36 -8 1 C-5.13879744 -0.43060128 -3.15989415 -0.38692581 0 0 Z " fill="#1D1D1D" transform="translate(220,131)"/>
<path d="M0 0 C-0.33 0.99 -0.66 1.98 -1 3 C-1.78375 3.28875 -2.5675 3.5775 -3.375 3.875 C-6.21440275 4.78415773 -6.21440275 4.78415773 -7.5 7.5625 C-9 10 -9 10 -11.6875 10.8125 C-12.450625 10.874375 -13.21375 10.93625 -14 11 C-5.28651685 0 -5.28651685 0 0 0 Z " fill="#E8E8E8" transform="translate(224,93)"/>
<path d="M0 0 C0.33 0.66 0.66 1.32 1 2 C1.66 2 2.32 2 3 2 C3.625 3.8125 3.625 3.8125 4 6 C3.01 7.485 3.01 7.485 2 9 C0.68 8.67 -0.64 8.34 -2 8 C-1.34 5.36 -0.68 2.72 0 0 Z " fill="#ECECEC" transform="translate(131,152)"/>
<path d="M0 0 C0.33 0.66 0.66 1.32 1 2 C3.02463255 2.65213292 3.02463255 2.65213292 5 3 C5 3.66 5 4.32 5 5 C5.99 5.33 6.98 5.66 8 6 C8 6.66 8 7.32 8 8 C4.54074837 6.7508258 1.85306797 5.32472205 -1 3 C-0.67 2.01 -0.34 1.02 0 0 Z " fill="#EAEAEA" transform="translate(218,166)"/>
<path d="M0 0 C2.35448165 2.55068845 2.98327924 3.71017358 3.1875 7.25 C3.125625 8.1575 3.06375 9.065 3 10 C2.34 10 1.68 10 1 10 C0.63720544 8.71073008 0.28503302 7.41846728 -0.0625 6.125 C-0.35833984 5.04605469 -0.35833984 5.04605469 -0.66015625 3.9453125 C-1 2 -1 2 0 0 Z " fill="#EBEBEB" transform="translate(308,104)"/>
<path d="M0 0 C0.66 0 1.32 0 2 0 C3.32 2.64 4.64 5.28 6 8 C5.01 8 4.02 8 3 8 C3 7.34 3 6.68 3 6 C2.01 5.67 1.02 5.34 0 5 C0 3.35 0 1.7 0 0 Z " fill="#DCDCDC" transform="translate(133,143)"/>
<path d="M0 0 C4.4785979 -0.17563129 8.02584132 -0.22085338 12 2 C12.33 2.99 12.66 3.98 13 5 C11.58208592 4.54554036 10.16571954 4.08625056 8.75 3.625 C7.96109375 3.36976562 7.1721875 3.11453125 6.359375 2.8515625 C4.13372042 2.04826333 2.09068328 1.10288338 0 0 Z " fill="#D5D5D5" transform="translate(99,0)"/>
<path d="M0 0 C-0.33 1.65 -0.66 3.3 -1 5 C-1.66 5 -2.32 5 -3 5 C-3.33 7.64 -3.66 10.28 -4 13 C-4.33 13 -4.66 13 -5 13 C-5.46882399 4.87371744 -5.46882399 4.87371744 -3.625 1.4375 C-2 0 -2 0 0 0 Z " fill="#3E3E3E" transform="translate(37,131)"/>
<path d="M0 0 C-7.5 5 -7.5 5 -11 5 C-10.25 3.0625 -10.25 3.0625 -9 1 C-6.05528957 -0.21850087 -3.15451555 -0.08762543 0 0 Z " fill="#EEEEEE" transform="translate(83,0)"/>
<path d="M0 0 C2.88575819 0.39803561 3.82189513 0.79009069 5.75 3.0625 C6.1625 3.701875 6.575 4.34125 7 5 C6.01 5.495 6.01 5.495 5 6 C3.2925002 4.71937515 1.62626404 3.38232443 0 2 C0 1.34 0 0.68 0 0 Z " fill="#F0F0F0" transform="translate(193,178)"/>
<path d="M0 0 C0.66 0.33 1.32 0.66 2 1 C2 1.66 2 2.32 2 3 C1.34 3 0.68 3 0 3 C0 4.65 0 6.3 0 8 C-1.32 8.33 -2.64 8.66 -4 9 C-2.94124926 5.59687262 -1.99097846 2.98646769 0 0 Z " fill="#D7D7D7" transform="translate(206,108)"/>
<path d="M0 0 C1.32 0 2.64 0 4 0 C4.66 1.98 5.32 3.96 6 6 C5.01 6 4.02 6 3 6 C2.01 4.02 1.02 2.04 0 0 Z " fill="#EBEBEB" transform="translate(25,151)"/>
<path d="M0 0 C0.66 0 1.32 0 2 0 C2.33 2.31 2.66 4.62 3 7 C1.35 6.67 -0.3 6.34 -2 6 C-1.34 4.02 -0.68 2.04 0 0 Z " fill="#DADADA" transform="translate(177,143)"/>
<path d="M0 0 C0.66 0.33 1.32 0.66 2 1 C1.67 1.99 1.34 2.98 1 4 C-2.0625 5.1875 -2.0625 5.1875 -5 6 C-3.86695008 2.60085025 -2.87481525 1.94745549 0 0 Z " fill="#E8E8E8" transform="translate(286,185)"/>
<path d="M0 0 C2.0625 0.4375 2.0625 0.4375 4 1 C3.67 1.99 3.34 2.98 3 4 C1.35 4.33 -0.3 4.66 -2 5 C-1.125 1.125 -1.125 1.125 0 0 Z " fill="#EFEFEF" transform="translate(203,116)"/>
<path d="M0 0 C0.33 0.99 0.66 1.98 1 3 C-0.3125 5.1875 -0.3125 5.1875 -2 7 C-2.66 7 -3.32 7 -4 7 C-3.39816251 4.97954558 -2.72693904 2.97888961 -2 1 C-1.34 0.67 -0.68 0.34 0 0 Z " fill="#F4F4F4" transform="translate(16,80)"/>
<path d="M0 0 C-2.93127462 1.95418308 -4.55834679 2.64700993 -8 3 C-8.66 2.34 -9.32 1.68 -10 1 C-6.78548731 -0.60725635 -3.56387464 -0.05748185 0 0 Z " fill="#F0F0F0" transform="translate(212,0)"/>
</svg>
